<svg width="208" height="207" viewBox="0 0 208 207" fill="none" xmlns="http://www.w3.org/2000/svg">
<g clip-path="url(#clip0_592_7333)">
<path d="M77.7543 193.088L79.4 186.868L81.0973 187.317L79.7892 192.261L82.0447 192.858L83.3528 187.914L85.0502 188.363L83.4044 194.583L77.7543 193.088Z" fill="black"/>
<path d="M66.5173 185.471C66.7246 184.978 66.9778 184.569 67.2769 184.243C67.5687 183.915 67.8978 183.67 68.264 183.508C68.6199 183.351 69.0041 183.279 69.4168 183.291C69.8265 183.31 70.2557 183.414 70.7046 183.603C71.1173 183.776 71.4736 184.003 71.7735 184.283C72.0631 184.567 72.2798 184.892 72.4234 185.259C72.5641 185.634 72.626 186.044 72.6093 186.488C72.5853 186.93 72.4696 187.397 72.2624 187.889C71.985 188.548 71.636 189.053 71.2153 189.405C70.7916 189.763 70.3122 189.971 69.7772 190.027C69.2422 190.083 68.6779 189.986 68.0842 189.736C67.5267 189.501 67.0846 189.174 66.7581 188.756C66.4315 188.337 66.2411 187.847 66.187 187.288C66.1298 186.735 66.2399 186.13 66.5173 185.471ZM70.6116 187.194C70.7762 186.803 70.8751 186.457 70.9082 186.156C70.9311 185.859 70.8809 185.603 70.7579 185.389C70.6317 185.183 70.4238 185.019 70.1342 184.897C69.8446 184.775 69.5855 184.742 69.3569 184.799C69.118 184.861 68.9038 185.005 68.7144 185.232C68.5148 185.464 68.3326 185.775 68.168 186.166C68.0034 186.557 67.9097 186.901 67.8869 187.198C67.8568 187.492 67.9048 187.742 68.0309 187.949C68.1571 188.155 68.365 188.32 68.6546 188.442C69.0817 188.621 69.4555 188.604 69.776 188.39C70.0862 188.179 70.3647 187.781 70.6116 187.194Z" fill="black"/>
<path d="M54.3645 182.477L57.0044 178.056L56.1951 177.572L58.0376 174.487L59.3933 175.296L58.2092 177.279L61.9222 179.496L63.1063 177.513L64.462 178.323L62.6195 181.408L62.1541 181.131C61.6898 181.357 61.2323 181.655 60.7818 182.027C60.3272 182.405 59.8883 182.834 59.4649 183.313C59.0416 183.792 58.6432 184.291 58.2697 184.809L54.3645 182.477ZM57.6817 182.921C57.9773 182.548 58.2803 182.194 58.5908 181.858C58.8973 181.528 59.2159 181.224 59.5468 180.946C59.8709 180.664 60.2139 180.411 60.5758 180.188L58.5119 178.956L56.5486 182.244L57.6817 182.921Z" fill="black"/>
<path d="M43.6396 174.532L46.8891 170.537L46.1578 169.942L48.4258 167.154L49.6507 168.151L48.1933 169.942L51.548 172.671L53.0054 170.88L54.2303 171.876L51.9623 174.664L51.5418 174.322C51.0498 174.479 50.5541 174.708 50.0547 175.011C49.5504 175.32 49.0542 175.681 48.5662 176.094C48.0782 176.507 47.6121 176.943 47.1679 177.402L43.6396 174.532ZM46.8582 175.449C47.2044 175.123 47.5553 174.816 47.911 174.528C48.2617 174.246 48.6209 173.991 48.9883 173.764C49.3497 173.531 49.7255 173.33 50.1158 173.162L48.2511 171.645L45.8344 174.616L46.8582 175.449Z" fill="black"/>
<path d="M36.2232 167.527C35.8171 167.09 35.5532 166.638 35.4317 166.172C35.3047 165.7 35.3195 165.231 35.4759 164.765C35.6323 164.298 35.9408 163.851 36.4014 163.423L37.0233 162.846L39.8448 165.887C40.1969 165.538 40.383 165.167 40.4033 164.773C40.4182 164.374 40.2574 163.993 39.9207 163.63C39.6375 163.325 39.3522 163.075 39.0648 162.881C38.7717 162.692 38.4389 162.524 38.0664 162.377L39.0597 161.455C39.3886 161.578 39.6992 161.746 39.9915 161.957C40.2842 162.156 40.5989 162.438 40.9356 162.801C41.3737 163.273 41.6748 163.77 41.8387 164.293C41.9968 164.822 41.9936 165.355 41.8289 165.894C41.6643 166.433 41.3113 166.953 40.7701 167.455C40.2173 167.968 39.674 168.301 39.1402 168.453C38.5954 168.605 38.0759 168.6 37.5817 168.437C37.0875 168.274 36.6346 167.971 36.2232 167.527ZM37.1307 166.669C37.3605 166.917 37.6335 167.049 37.9497 167.067C38.2605 167.078 38.5992 166.941 38.9656 166.654L37.2904 164.849C37.1004 165.025 36.9626 165.218 36.877 165.426C36.7861 165.628 36.7589 165.835 36.7954 166.048C36.8319 166.26 36.9437 166.468 37.1307 166.669Z" fill="black"/>
<path d="M27.8192 157.093C27.4033 156.502 27.2979 155.86 27.5028 155.169C27.7014 154.481 28.2472 153.824 29.1402 153.195C29.7378 152.775 30.3031 152.507 30.8364 152.391C31.3632 152.28 31.8356 152.303 32.2537 152.46C32.6717 152.617 33.0208 152.895 33.3011 153.294C33.4774 153.544 33.5989 153.785 33.6658 154.017C33.7281 154.242 33.753 154.455 33.7406 154.656C33.7283 154.857 33.6981 155.046 33.6503 155.224L33.7045 155.301C33.8085 155.189 33.9235 155.079 34.0493 154.972C34.1688 154.868 34.2928 154.772 34.4213 154.681L36.5415 153.189L37.5518 154.625L29.9767 159.955L29.1563 158.789L29.6982 158.105L29.6508 158.037C29.4416 158.04 29.2317 158.015 29.0212 157.962C28.8042 157.913 28.5948 157.82 28.393 157.683C28.1868 157.54 27.9955 157.343 27.8192 157.093ZM29.2915 156.748C29.4678 156.999 29.6593 157.162 29.8661 157.238C30.0728 157.313 30.3071 157.311 30.5688 157.233C30.8196 157.153 31.1047 157.005 31.424 156.79L31.5782 156.681C31.9188 156.442 32.1853 156.206 32.3778 155.975C32.5639 155.748 32.6637 155.514 32.6773 155.274C32.6909 155.034 32.6051 154.782 32.4197 154.519C32.2661 154.3 32.0785 154.163 31.8569 154.108C31.6354 154.053 31.3809 154.073 31.0935 154.17C30.806 154.266 30.4921 154.434 30.1515 154.674C29.6375 155.035 29.3086 155.387 29.1646 155.728C29.0096 156.068 29.0519 156.408 29.2915 156.748Z" fill="black"/>
<path d="M19.0259 141.257L22.8428 142.013L24.6951 138.206L25.5249 139.886L23.684 143.529L26.6104 142.084L27.3358 143.552L24.4094 144.998L28.4213 145.75L29.2511 147.429L25.1026 146.587L23.3836 150.078L22.5799 148.451L24.3671 145.019L21.5674 146.402L20.842 144.933L23.6417 143.55L19.8296 142.884L19.0259 141.257Z" fill="black"/>
<path d="M15.3535 130.88L14.774 129.036L18.4824 130.539L20.8446 126.894L21.4417 128.793L19.1159 132.279L22.2297 131.3L22.7562 132.975L16.6184 134.904L16.092 133.229L19.0709 132.293L15.3535 130.88Z" fill="black"/>
<path d="M12.7444 120.309C12.5986 119.458 12.6731 118.775 12.9679 118.263C13.2536 117.744 13.7758 117.419 14.5347 117.289L18.7623 116.565L18.9691 117.773L18.1673 118.257L18.1753 118.304C18.4303 118.443 18.648 118.597 18.8282 118.766C19.0072 118.926 19.1488 119.125 19.2532 119.362C19.364 119.591 19.4498 119.883 19.5108 120.239C19.5744 120.61 19.5624 120.959 19.4747 121.285C19.378 121.605 19.1971 121.875 18.932 122.095C18.6592 122.317 18.2944 122.467 17.8376 122.546C17.1639 122.661 16.6279 122.51 16.2296 122.092C15.8235 121.675 15.5241 120.997 15.3314 120.058L15.1077 118.96L14.8289 119.008C14.496 119.065 14.2673 119.196 14.143 119.4C14.0173 119.597 13.9809 119.851 14.034 120.16C14.087 120.47 14.1851 120.764 14.3284 121.042C14.464 121.322 14.6228 121.598 14.8048 121.869L13.7291 122.639C13.4927 122.329 13.2891 121.977 13.1181 121.584C12.9459 121.183 12.8213 120.758 12.7444 120.309ZM16.2567 119.457C16.3677 120.012 16.5346 120.382 16.7575 120.567C16.9805 120.752 17.243 120.818 17.5449 120.767C17.8082 120.722 17.9846 120.612 18.0743 120.437C18.1562 120.264 18.1759 120.053 18.1335 119.805C18.0698 119.433 17.9078 119.138 17.6472 118.92C17.3789 118.703 17.0434 118.629 16.6408 118.698L16.1182 118.787L16.2567 119.457Z" fill="black"/>
<path d="M14.5369 80.8915L20.8005 82.3618L20.3992 84.0711L15.4205 82.9024L14.8873 85.1737L19.866 86.3425L19.4647 88.0518L13.2012 86.5814L14.5369 80.8915Z" fill="black"/>
<path d="M21.8357 69.4446C22.3337 69.638 22.7497 69.8796 23.0838 70.1694C23.4208 70.4519 23.6749 70.774 23.8464 71.1355C24.0133 71.4868 24.0967 71.8689 24.0965 72.2818C24.089 72.6918 23.9971 73.1238 23.8208 73.5778C23.6587 73.9952 23.4421 74.3578 23.1709 74.6654C22.8953 74.9629 22.5759 75.1886 22.2128 75.3425C21.8423 75.4936 21.4346 75.567 20.9896 75.5628C20.5474 75.5512 20.0774 75.4487 19.5794 75.2554C18.913 74.9966 18.3983 74.6619 18.0353 74.2513C17.6649 73.8378 17.4442 73.3645 17.3732 72.8313C17.3021 72.298 17.3832 71.7312 17.6164 71.1307C17.8353 70.5668 18.1495 70.1158 18.5589 69.7776C18.9684 69.4394 19.4521 69.2353 20.0101 69.1655C20.5608 69.0928 21.1694 69.1859 21.8357 69.4446ZM20.2277 73.5858C20.6232 73.7393 20.972 73.8284 21.2742 73.8531C21.572 73.8676 21.826 73.8103 22.0362 73.6812C22.2391 73.5493 22.3974 73.3369 22.5112 73.044C22.6249 72.7511 22.65 72.4912 22.5864 72.2642C22.5184 72.0271 22.3682 71.8171 22.1358 71.6342C21.899 71.4411 21.5829 71.2678 21.1874 71.1143C20.792 70.9607 20.4454 70.8767 20.1476 70.8622C19.8527 70.8404 19.6038 70.8954 19.4009 71.0273C19.198 71.1592 19.0397 71.3716 18.926 71.6645C18.7582 72.0966 18.786 72.4698 19.0095 72.7841C19.2285 73.0882 19.6346 73.3554 20.2277 73.5858Z" fill="black"/>
<path d="M24.4871 57.212L28.9807 59.7267L29.4411 58.904L32.5773 60.6591L31.8062 62.037L29.7908 60.9092L27.6789 64.683L29.6944 65.8108L28.9233 67.1887L25.787 65.4337L26.0517 64.9606C25.8128 64.5029 25.5013 64.054 25.1174 63.6141C24.7266 63.1703 24.2857 62.7436 23.7948 62.3339C23.304 61.9241 22.7943 61.5399 22.2659 61.1812L24.4871 57.212ZM24.1369 60.5403C24.5175 60.8253 24.8802 61.1183 25.2249 61.4192C25.5627 61.7163 25.8754 62.0263 26.1628 62.3492C26.4541 62.6652 26.7163 63.001 26.9494 63.3565L28.1233 61.2588L24.7814 59.3886L24.1369 60.5403Z" fill="black"/>
<path d="M32.1291 46.2687L36.2134 49.4048L36.7875 48.6571L39.638 50.8459L38.6764 52.0982L36.8446 50.6917L34.2109 54.1217L36.0427 55.5283L35.0811 56.7807L32.2305 54.5919L32.5606 54.162C32.3901 53.6745 32.1466 53.1855 31.8301 52.6948C31.5073 52.1994 31.1326 51.7135 30.7059 51.2373C30.2792 50.7611 29.8302 50.3075 29.359 49.8763L32.1291 46.2687ZM31.3028 49.5118C31.6384 49.8487 31.9551 50.1909 32.2528 50.5384C32.5443 50.8811 32.809 51.2329 33.0469 51.5938C33.2896 51.9485 33.5006 52.3186 33.6801 52.704L35.1441 50.7973L32.1066 48.465L31.3028 49.5118Z" fill="black"/>
<path d="M38.9214 38.6602C39.3474 38.2419 39.7916 37.9655 40.2539 37.8309C40.7218 37.6908 41.1912 37.6923 41.662 37.8355C42.1329 37.9787 42.5885 38.2746 43.0287 38.7231L43.6231 39.3285L40.6632 42.2342C41.0211 42.5764 41.3972 42.7521 41.7916 42.7613C42.1915 42.7649 42.568 42.5934 42.9212 42.2467C43.2183 41.9551 43.4599 41.6629 43.6459 41.3702C43.8264 41.0719 43.9851 40.7345 44.1219 40.358L45.0712 41.325C44.957 41.6572 44.7986 41.9724 44.5958 42.2705C44.4042 42.5687 44.1318 42.8912 43.7786 43.2379C43.319 43.6892 42.83 44.0041 42.3117 44.1826C41.788 44.3555 41.2546 44.3673 40.7116 44.2178C40.1685 44.0684 39.6384 43.7302 39.1211 43.2032C38.5928 42.6651 38.2449 42.1314 38.0776 41.6021C37.9104 41.0617 37.9013 40.5422 38.0503 40.0437C38.1994 39.5451 38.4897 39.0839 38.9214 38.6602ZM39.8048 39.5432C39.5637 39.7799 39.439 40.0565 39.4305 40.373C39.4276 40.6841 39.5745 41.0187 39.8712 41.377L41.6286 39.6517C41.447 39.4667 41.251 39.3344 41.0407 39.2547C40.8359 39.1694 40.6278 39.1481 40.4163 39.1906C40.2048 39.2331 40.001 39.3506 39.8048 39.5432Z" fill="black"/>
<path d="M49.1162 29.9649C49.6954 29.5326 50.3336 29.4091 51.0307 29.5946C51.7232 29.7737 52.396 30.3008 53.0491 31.1759C53.4861 31.7614 53.77 32.319 53.9007 32.8488C54.0268 33.3722 54.017 33.8451 53.8715 34.2674C53.726 34.6897 53.4581 35.0465 53.0677 35.3379C52.8222 35.5211 52.5847 35.6494 52.3551 35.7227C52.1319 35.7913 51.9197 35.8223 51.7186 35.8155C51.5175 35.8088 51.3275 35.784 51.1484 35.7411L51.0729 35.7975C51.1874 35.8983 51.3002 36.0101 51.4115 36.133C51.5181 36.2495 51.6183 36.3707 51.7123 36.4966L53.2629 38.5741L51.8559 39.6243L46.316 32.2019L47.4586 31.3491L48.1573 31.8716L48.2234 31.8222C48.2145 31.6132 48.2338 31.4028 48.2814 31.1908C48.3244 30.9725 48.4113 30.7606 48.5422 30.5551C48.6793 30.3448 48.8707 30.1481 49.1162 29.9649ZM49.5017 31.4269C49.2562 31.6102 49.0986 31.8062 49.029 32.015C48.9594 32.2238 48.9675 32.4579 49.0533 32.7173C49.1407 32.9658 49.2964 33.2466 49.5203 33.5598L49.6331 33.7109C49.8821 34.0445 50.125 34.3043 50.3618 34.4903C50.594 34.6699 50.8302 34.7631 51.0706 34.77C51.3109 34.7768 51.5602 34.6839 51.8183 34.4913C52.0323 34.3315 52.164 34.1401 52.2132 33.9172C52.2624 33.6942 52.2347 33.4404 52.1301 33.1557C52.0255 32.8711 51.8487 32.562 51.5996 32.2283C51.2237 31.7247 50.8631 31.4057 50.5178 31.2714C50.174 31.126 49.8353 31.1779 49.5017 31.4269Z" fill="black"/>
<path d="M64.6992 20.7303L64.0505 24.567L67.9074 26.3116L66.2516 27.1883L62.5582 25.4504L64.0855 28.3351L62.6379 29.1014L61.1107 26.2168L60.4718 30.2483L58.816 31.1249L59.5412 26.9543L56.0035 25.3341L57.6072 24.485L61.0886 26.1751L59.6276 23.4154L61.0751 22.649L62.5362 25.4087L63.0954 21.5794L64.6992 20.7303Z" fill="black"/>
<path d="M74.9685 16.7685L76.7951 16.1374L75.3975 19.8866L79.1076 22.1454L77.2253 22.7957L73.6758 20.5687L74.7417 23.6538L73.0822 24.2271L70.9813 18.146L72.6408 17.5727L73.6604 20.5241L74.9685 16.7685Z" fill="black"/>
<path d="M85.4612 13.8634C86.3085 13.6937 86.9926 13.749 87.5134 14.0292C88.0403 14.3002 88.3794 14.8132 88.5306 15.568L89.3729 19.7737L88.1713 20.0144L87.665 19.2265L87.6187 19.2357C87.4863 19.4946 87.3385 19.7165 87.1752 19.9014C87.0197 20.0848 86.8248 20.2319 86.5907 20.3429C86.3658 20.4601 86.0762 20.5541 85.7218 20.6251C85.3521 20.6991 85.0031 20.6969 84.675 20.6184C84.353 20.5307 84.0779 20.3575 83.8498 20.0987C83.6202 19.8322 83.4599 19.4718 83.3689 19.0173C83.2347 18.3472 83.3709 17.8071 83.7775 17.3972C84.1826 16.9796 84.8519 16.6613 85.7854 16.4423L86.8761 16.1878L86.8206 15.9105C86.7543 15.5793 86.6171 15.3544 86.4091 15.2358C86.2088 15.1157 85.9545 15.0865 85.6464 15.1482C85.3383 15.2099 85.0472 15.3163 84.773 15.4673C84.4973 15.6107 84.2262 15.7771 83.9597 15.9667L83.1598 14.9131C83.4633 14.6681 83.8091 14.4546 84.1973 14.2727C84.5931 14.0893 85.0145 13.9528 85.4612 13.8634ZM86.4119 17.3503C85.8604 17.4768 85.4953 17.6541 85.3167 17.8821C85.138 18.1102 85.0788 18.3744 85.139 18.6748C85.1914 18.9367 85.3062 19.11 85.4834 19.1947C85.6591 19.2717 85.8701 19.2855 86.1166 19.2361C86.4864 19.1621 86.7767 18.9918 86.9877 18.7252C87.1972 18.4509 87.2618 18.1135 87.1816 17.7129L87.0774 17.193L86.4119 17.3503Z" fill="black"/>
<path d="M124.914 14.5475L123.621 20.8499L121.901 20.4968L122.929 15.4873L120.644 15.0181L119.615 20.0276L117.895 19.6745L119.189 13.3722L124.914 14.5475Z" fill="black"/>
<path d="M136.562 21.5219C136.383 22.0251 136.153 22.4478 135.873 22.7899C135.6 23.1346 135.285 23.3978 134.928 23.5793C134.582 23.756 134.202 23.8501 133.79 23.8615C133.38 23.8655 132.945 23.7858 132.486 23.6223C132.064 23.472 131.696 23.2656 131.381 23.0033C131.076 22.7361 130.841 22.4232 130.677 22.0645C130.516 21.6984 130.431 21.2929 130.423 20.848C130.422 20.4057 130.511 19.9329 130.69 19.4297C130.93 18.7563 131.25 18.2324 131.651 17.858C132.053 17.4762 132.52 17.2423 133.051 17.1563C133.582 17.0703 134.151 17.1354 134.758 17.3516C135.328 17.5546 135.788 17.856 136.137 18.2558C136.487 18.6555 136.704 19.1333 136.79 19.6892C136.878 20.2376 136.802 20.8485 136.562 21.5219ZM132.377 20.0309C132.235 20.4305 132.156 20.7817 132.14 21.0845C132.133 21.3825 132.198 21.6348 132.333 21.8413C132.47 22.0404 132.687 22.1927 132.983 22.2982C133.279 22.4037 133.54 22.4214 133.765 22.3515C134 22.2768 134.205 22.1208 134.382 21.8834C134.568 21.6413 134.733 21.3204 134.875 20.9208C135.017 20.5212 135.092 20.1724 135.098 19.8743C135.111 19.5789 135.049 19.3317 134.912 19.1325C134.774 18.9334 134.557 18.7811 134.261 18.6757C133.825 18.5201 133.452 18.5584 133.145 18.7906C132.847 19.0181 132.591 19.4315 132.377 20.0309Z" fill="black"/>
<path d="M148.864 23.8285L146.476 28.391L147.312 28.828L145.645 32.0124L144.246 31.2803L145.317 29.234L141.485 27.229L140.415 29.2753L139.016 28.5432L140.682 25.3589L141.162 25.6102C141.613 25.3585 142.053 25.0345 142.482 24.6384C142.915 24.2353 143.329 23.7826 143.725 23.2804C144.12 22.7782 144.49 22.258 144.834 21.7197L148.864 23.8285ZM145.527 23.5719C145.253 23.9604 144.97 24.3311 144.679 24.6842C144.392 25.0303 144.09 25.3515 143.776 25.6479C143.468 25.9479 143.14 26.2194 142.791 26.4624L144.921 27.5769L146.696 24.1838L145.527 23.5719Z" fill="black"/>
<path d="M160.018 31.159L156.998 35.3297L157.761 35.8826L155.653 38.7936L154.374 37.8675L155.729 35.9968L152.226 33.4605L150.872 35.3312L149.593 34.4051L151.701 31.4942L152.14 31.8121C152.622 31.628 153.104 31.3708 153.586 31.0406C154.072 30.704 154.547 30.3158 155.011 29.8759C155.475 29.436 155.916 28.9745 156.334 28.4913L160.018 31.159ZM156.753 30.4241C156.425 30.7691 156.092 31.0952 155.753 31.4026C155.419 31.7036 155.075 31.9781 154.72 32.226C154.373 32.4786 154.009 32.6999 153.628 32.8902L155.575 34.3L157.822 31.1982L156.753 30.4241Z" fill="black"/>
<path d="M167.814 37.7356C168.244 38.1498 168.533 38.586 168.681 39.0443C168.834 39.5081 168.845 39.9774 168.715 40.4521C168.585 40.9268 168.303 41.3905 167.867 41.8431L167.278 42.4543L164.29 39.5772C163.958 39.9446 163.793 40.3255 163.795 40.7199C163.803 41.1198 163.985 41.4914 164.341 41.8347C164.641 42.1235 164.94 42.3567 165.238 42.5344C165.541 42.7065 165.883 42.8556 166.263 42.9818L165.323 43.9579C164.988 43.8531 164.668 43.7036 164.365 43.5093C164.061 43.3261 163.731 43.0629 163.375 42.7196C162.911 42.2728 162.582 41.7929 162.389 41.2798C162.202 40.7611 162.175 40.2283 162.309 39.6813C162.443 39.1343 162.766 38.5948 163.278 38.0629C163.802 37.5197 164.325 37.157 164.85 36.9749C165.385 36.7925 165.904 36.7689 166.407 36.9038C166.909 37.0388 167.378 37.3161 167.814 37.7356ZM166.956 38.6435C166.713 38.4092 166.433 38.2923 166.116 38.2927C165.805 38.2986 165.475 38.4548 165.125 38.7614L166.899 40.4697C167.079 40.2829 167.206 40.0833 167.279 39.8708C167.359 39.6637 167.374 39.4551 167.326 39.2449C167.277 39.0347 167.154 38.8342 166.956 38.6435Z" fill="black"/>
<path d="M176.791 47.682C177.24 48.2488 177.381 48.8833 177.215 49.5853C177.055 50.2826 176.548 50.9699 175.691 51.6474C175.118 52.1006 174.569 52.4 174.043 52.5456C173.523 52.6863 173.05 52.6899 172.624 52.5563C172.198 52.4227 171.833 52.1649 171.531 51.7829C171.341 51.5426 171.206 51.3088 171.127 51.0814C171.052 50.8601 171.015 50.6489 171.016 50.4477C171.017 50.2465 171.037 50.0559 171.074 49.8757L171.016 49.8018C170.918 49.919 170.81 50.035 170.69 50.1497C170.577 50.2595 170.458 50.3631 170.335 50.4606L168.302 52.0689L167.213 50.692L174.476 44.9457L175.361 46.0639L174.858 46.7771L174.909 46.8418C175.118 46.8269 175.329 46.8404 175.542 46.882C175.762 46.9188 175.976 46.9997 176.185 47.1248C176.399 47.256 176.601 47.4417 176.791 47.682ZM175.341 48.1084C175.15 47.8681 174.95 47.7161 174.739 47.6524C174.529 47.5887 174.295 47.6033 174.038 47.6964C173.792 47.7908 173.516 47.9543 173.209 48.1869L173.061 48.3039C172.735 48.5622 172.482 48.8123 172.303 49.0543C172.13 49.2913 172.043 49.5301 172.043 49.7706C172.043 50.011 172.143 50.2576 172.342 50.5102C172.508 50.7196 172.703 50.8459 172.927 50.8888C173.152 50.9317 173.405 50.8969 173.686 50.7844C173.968 50.6718 174.272 50.4864 174.598 50.228C175.091 49.8381 175.4 49.4687 175.525 49.1197C175.66 48.772 175.599 48.4349 175.341 48.1084Z" fill="black"/>
<path d="M186.46 62.9994L182.607 62.4588L180.971 66.3632L180.048 64.7326L181.682 60.9919L178.841 62.5996L178.034 61.1741L180.875 59.5664L176.827 59.0411L175.904 57.4105L180.093 58.0183L181.614 54.4365L182.508 56.0157L180.916 59.5432L183.633 58.0052L184.44 59.4306L181.723 60.9687L185.566 61.4201L186.46 62.9994Z" fill="black"/>
<path d="M190.709 73.153L191.391 74.9611L187.604 73.6694L185.45 77.4415L184.748 75.5782L186.874 71.9676L183.82 73.1196L183.2 71.4769L189.22 69.206L189.84 70.8487L186.918 71.9509L190.709 73.153Z" fill="black"/>
<path d="M193.908 83.5607C194.102 84.4029 194.065 85.0883 193.8 85.6167C193.544 86.1511 193.041 86.5045 192.29 86.6768L188.11 87.6369L187.836 86.4425L188.609 85.9143L188.598 85.8683C188.336 85.7432 188.11 85.6017 187.921 85.4437C187.733 85.2933 187.58 85.1027 187.463 84.8718C187.339 84.6502 187.237 84.3634 187.156 84.0112C187.072 83.6437 187.064 83.2948 187.134 82.9646C187.212 82.6402 187.378 82.3604 187.63 82.1252C187.89 81.8881 188.246 81.7178 188.697 81.614C189.364 81.461 189.907 81.582 190.328 81.9769C190.757 82.3701 191.094 83.0302 191.339 83.9573L191.624 85.0404L191.9 84.9771C192.229 84.9015 192.45 84.758 192.563 84.5468C192.677 84.3432 192.699 84.0882 192.629 83.782C192.559 83.4757 192.444 83.1877 192.285 82.9178C192.134 82.6462 191.96 82.3799 191.763 82.1189L192.794 81.2897C193.048 81.5862 193.271 81.9258 193.463 82.3088C193.658 82.6994 193.806 83.1167 193.908 83.5607ZM190.449 84.609C190.307 84.0613 190.12 83.7013 189.887 83.5292C189.654 83.357 189.388 83.3052 189.089 83.3738C188.829 83.4336 188.659 83.5532 188.579 83.7327C188.507 83.9105 188.5 84.1218 188.556 84.3668C188.64 84.7343 188.819 85.0198 189.091 85.2232C189.371 85.4249 189.71 85.48 190.108 85.3886L190.625 85.2699L190.449 84.609Z" fill="black"/>
<path d="M194.333 123.017L187.997 121.9L188.301 120.171L193.338 121.059L193.743 118.761L188.706 117.874L189.011 116.144L195.347 117.261L194.333 123.017Z" fill="black"/>
<path d="M187.687 134.856C187.179 134.691 186.75 134.473 186.4 134.202C186.048 133.939 185.776 133.632 185.584 133.28C185.398 132.939 185.293 132.562 185.27 132.15C185.255 131.74 185.322 131.304 185.473 130.84C185.611 130.415 185.807 130.04 186.061 129.718C186.319 129.406 186.625 129.162 186.979 128.988C187.341 128.817 187.744 128.72 188.188 128.7C188.63 128.686 189.105 128.762 189.613 128.927C190.293 129.148 190.826 129.454 191.211 129.843C191.604 130.235 191.851 130.695 191.952 131.224C192.053 131.752 192.004 132.323 191.805 132.935C191.618 133.511 191.33 133.979 190.94 134.339C190.55 134.7 190.079 134.931 189.525 135.032C188.98 135.135 188.367 135.077 187.687 134.856ZM189.06 130.631C188.656 130.5 188.303 130.43 188 130.423C187.702 130.425 187.451 130.496 187.249 130.637C187.054 130.78 186.908 131.001 186.81 131.3C186.713 131.599 186.703 131.86 186.779 132.083C186.86 132.316 187.022 132.517 187.264 132.686C187.512 132.866 187.837 133.021 188.24 133.152C188.644 133.283 188.995 133.348 189.293 133.346C189.588 133.351 189.834 133.282 190.029 133.139C190.224 132.996 190.37 132.775 190.467 132.476C190.611 132.035 190.562 131.664 190.321 131.363C190.085 131.071 189.665 130.827 189.06 130.631Z" fill="black"/>
<path d="M185.729 147.218L181.101 144.96L180.688 145.807L177.458 144.231L178.15 142.812L180.226 143.825L182.123 139.938L180.047 138.925L180.74 137.506L183.969 139.083L183.732 139.57C183.996 140.013 184.332 140.444 184.74 140.862C185.155 141.283 185.619 141.684 186.133 142.066C186.646 142.447 187.176 142.802 187.724 143.131L185.729 147.218ZM185.892 143.876C185.496 143.612 185.117 143.34 184.756 143.059C184.402 142.781 184.073 142.49 183.767 142.183C183.459 141.884 183.178 141.564 182.926 141.222L181.871 143.382L185.313 145.062L185.892 143.876Z" fill="black"/>
<path d="M178.713 158.573L174.459 155.671L173.928 156.45L170.959 154.425L171.849 153.121L173.757 154.422L176.194 150.85L174.286 149.548L175.176 148.244L178.145 150.269L177.839 150.717C178.037 151.194 178.307 151.668 178.651 152.14C179.001 152.617 179.402 153.081 179.855 153.532C180.308 153.984 180.782 154.412 181.276 154.816L178.713 158.573ZM179.356 155.289C179.002 154.971 178.667 154.647 178.35 154.317C178.04 153.991 177.756 153.655 177.498 153.308C177.236 152.968 177.004 152.61 176.803 152.235L175.449 154.221L178.612 156.379L179.356 155.289Z" fill="black"/>
<path d="M172.358 166.551C171.957 166.993 171.529 167.294 171.075 167.454C170.615 167.62 170.147 167.645 169.668 167.528C169.19 167.412 168.719 167.142 168.254 166.719L167.627 166.148L170.419 163.08C170.042 162.759 169.657 162.605 169.262 162.618C168.863 162.636 168.497 162.829 168.163 163.195C167.883 163.503 167.658 163.808 167.489 164.111C167.326 164.419 167.186 164.764 167.071 165.148L166.069 164.236C166.164 163.898 166.305 163.574 166.49 163.265C166.665 162.957 166.919 162.619 167.252 162.253C167.685 161.777 168.156 161.435 168.663 161.228C169.177 161.026 169.708 160.984 170.259 161.103C170.809 161.221 171.358 161.529 171.904 162.026C172.462 162.534 172.839 163.047 173.036 163.566C173.233 164.097 173.271 164.615 173.15 165.121C173.03 165.627 172.766 166.104 172.358 166.551ZM171.427 165.719C171.654 165.469 171.763 165.186 171.754 164.869C171.739 164.559 171.574 164.233 171.258 163.892L169.6 165.713C169.792 165.888 169.995 166.009 170.209 166.077C170.418 166.15 170.627 166.16 170.836 166.105C171.045 166.051 171.242 165.922 171.427 165.719Z" fill="black"/>
<path d="M162.668 175.805C162.114 176.269 161.484 176.428 160.777 176.282C160.076 176.143 159.374 175.654 158.673 174.817C158.204 174.257 157.889 173.716 157.729 173.195C157.574 172.679 157.557 172.206 157.678 171.777C157.8 171.347 158.047 170.975 158.421 170.663C158.656 170.466 158.886 170.324 159.111 170.238C159.33 170.157 159.54 170.115 159.741 170.11C159.942 170.105 160.133 170.12 160.314 170.152L160.387 170.092C160.267 169.997 160.148 169.892 160.03 169.776C159.917 169.665 159.81 169.55 159.709 169.43L158.044 167.443L159.39 166.315L165.338 173.414L164.245 174.33L163.518 173.848L163.455 173.901C163.476 174.109 163.468 174.32 163.432 174.534C163.402 174.755 163.327 174.971 163.208 175.184C163.083 175.401 162.903 175.609 162.668 175.805ZM162.201 174.367C162.436 174.17 162.582 173.966 162.64 173.753C162.698 173.541 162.676 173.308 162.576 173.054C162.475 172.81 162.304 172.539 162.062 172.239L161.941 172.094C161.674 171.775 161.417 171.529 161.17 171.357C160.928 171.191 160.687 171.111 160.447 171.117C160.206 171.124 159.963 171.231 159.716 171.438C159.511 171.609 159.39 171.808 159.354 172.033C159.317 172.259 159.359 172.51 159.479 172.789C159.6 173.067 159.794 173.366 160.061 173.685C160.465 174.167 160.843 174.465 161.195 174.58C161.546 174.705 161.882 174.635 162.201 174.367Z" fill="black"/>
<path d="M147.629 185.901L148.062 182.034L144.113 180.508L145.717 179.54L149.502 181.068L147.815 178.273L149.217 177.427L150.904 180.221L151.316 176.16L152.92 175.192L152.43 179.397L156.053 180.816L154.499 181.754L150.928 180.262L152.542 182.935L151.14 183.781L149.526 181.108L149.183 184.963L147.629 185.901Z" fill="black"/>
<path d="M137.599 190.433L135.81 191.165L136.995 187.344L133.164 185.297L135.007 184.542L138.676 186.566L137.438 183.546L139.063 182.88L141.502 188.833L139.877 189.499L138.694 186.61L137.599 190.433Z" fill="black"/>
<path d="M127.284 193.922C126.447 194.139 125.761 194.123 125.226 193.872C124.684 193.631 124.317 193.138 124.124 192.393L123.046 188.241L124.233 187.933L124.782 188.691L124.828 188.68C124.946 188.414 125.081 188.184 125.233 187.99C125.378 187.798 125.565 187.64 125.792 187.516C126.01 187.387 126.294 187.277 126.644 187.186C127.009 187.091 127.357 187.074 127.689 187.134C128.016 187.203 128.3 187.361 128.543 187.606C128.787 187.86 128.967 188.21 129.083 188.659C129.255 189.321 129.149 189.867 128.766 190.299C128.385 190.739 127.735 191.095 126.815 191.366L125.741 191.681L125.812 191.955C125.897 192.282 126.046 192.499 126.26 192.605C126.467 192.714 126.723 192.729 127.027 192.65C127.331 192.571 127.616 192.448 127.881 192.282C128.148 192.124 128.41 191.942 128.665 191.738L129.523 192.745C129.233 193.007 128.9 193.239 128.523 193.443C128.138 193.648 127.725 193.808 127.284 193.922ZM126.139 190.494C126.682 190.337 127.037 190.14 127.202 189.902C127.368 189.664 127.412 189.397 127.335 189.1C127.268 188.842 127.144 188.675 126.962 188.601C126.783 188.534 126.571 188.532 126.328 188.595C125.963 188.69 125.682 188.876 125.487 189.154C125.293 189.44 125.247 189.78 125.35 190.175L125.483 190.689L126.139 190.494Z" fill="black"/>
<circle cx="104.412" cy="14.9982" r="2.52503" fill="black"/>
<circle cx="193.631" cy="101.691" r="2.52503" fill="black"/>
<circle cx="14.3512" cy="101.691" r="2.52503" fill="black"/>
<circle cx="104.412" cy="193.434" r="2.52503" fill="black"/>
</g>
<path d="M46.233 123.559V118.909C46.233 116.216 46.6758 113.983 47.5614 112.212C48.4469 110.404 49.7199 108.928 51.3804 107.785C53.0777 106.604 55.144 105.644 57.5793 104.906L61.2876 103.744C62.6528 103.301 63.7967 102.766 64.7191 102.139C65.6416 101.475 66.3427 100.682 66.8224 99.7591C67.3389 98.8366 67.5972 97.785 67.5972 96.6043V96.3829C67.5972 94.538 66.9699 93.0805 65.7154 92.0104C64.4609 90.9035 62.7451 90.35 60.5681 90.35C58.428 90.35 56.6937 90.9404 55.3654 92.1211C54.0739 93.265 53.4282 94.9254 53.4282 97.1024V98.0987H46.3437V97.2131C46.3437 94.4088 46.971 92.0289 48.2255 90.0733C49.4801 88.1177 51.1774 86.6233 53.3175 85.5901C55.4945 84.557 57.9114 84.0404 60.5681 84.0404C63.2248 84.0404 65.6232 84.557 67.7633 85.5901C69.9034 86.5864 71.5822 88.007 72.7999 89.8519C74.0544 91.6599 74.6817 93.8 74.6817 96.2722V96.8257C74.6817 99.2979 74.1651 101.401 73.132 103.135C72.1357 104.833 70.7705 106.235 69.0363 107.342C67.302 108.412 65.328 109.297 63.1141 109.998L59.5718 111.105C57.9852 111.585 56.7491 112.12 55.8635 112.71C54.978 113.264 54.3507 113.891 53.9817 114.592C53.6496 115.256 53.4836 116.068 53.4836 117.028V117.249H74.3496V123.559H46.233ZM96.3309 123.559V115.699H77.2913V107.508L90.6854 84.8152H103.415V109.39H109.836V115.699H103.415V123.559H96.3309ZM84.0437 109.39H96.3309V89.3537H95.3346L84.0437 108.504V109.39ZM112.146 123.559L126.536 84.8152H133.842L119.452 123.559H112.146ZM142.18 123.559V122.12C142.18 120.681 142.291 119.463 142.512 118.467C142.733 117.433 143.213 116.271 143.951 114.98L156.958 92.0104V91.1249H136.368V84.8152H164.264V93.2281L150.537 117.747C150.058 118.596 149.726 119.352 149.541 120.016C149.357 120.681 149.264 121.492 149.264 122.452V123.559H142.18Z" fill="#DA8082"/>
<defs>
<clipPath id="clip0_592_7333">
<rect width="196.395" height="196.395" fill="white" transform="translate(5.93555 6.58154)"/>
</clipPath>
</defs>
</svg>
