<svg width="77" height="70" viewBox="0 0 77 70" fill="none" xmlns="http://www.w3.org/2000/svg">
<mask id="path-1-outside-1_1539_3465" maskUnits="userSpaceOnUse" x="1.13477" y="3" width="58" height="62" fill="black">
<rect fill="white" x="1.13477" y="3" width="58" height="62"/>
<path d="M6.63293 45.267C8.08849 47.4503 9.90793 49.2698 11.8487 50.7253C13.7894 52.1809 15.9727 53.2725 18.0348 54.1216C22.2801 55.6984 26.2829 56.0623 29.6792 55.8197C33.0755 55.5771 35.6227 54.8494 37.4421 54.2429C37.5634 54.2429 37.5634 54.2429 37.6847 54.1216V56.3049C37.6847 56.9114 37.5634 57.6392 37.5634 58.367C37.5634 59.0947 37.5634 59.8225 37.9273 60.6716C38.5338 62.0058 39.9893 62.7336 41.4449 63.2188C44.8412 64.1892 48.6014 64.1892 51.8763 63.5827C52.968 63.3401 53.8171 63.0975 54.7875 62.8549C55.7578 62.6123 56.7282 62.2484 57.456 61.5207C58.1837 60.6716 58.305 59.8225 58.4263 59.0947C58.6689 57.5179 58.5476 56.3049 58.6689 55.2133C58.6689 53.2725 58.6689 52.1809 58.5476 51.9383C58.4263 51.817 58.0624 51.9383 57.5773 52.1809C57.6986 51.9383 57.8199 51.817 57.8199 51.5744C58.0624 50.8466 57.9412 50.1188 57.6986 49.6336C57.456 49.1485 57.2134 49.0272 56.9708 49.0272C56.4856 49.2698 56.4856 50.1188 56.1217 51.0892C56.0004 51.6957 55.7578 52.3022 55.6365 52.666C55.5152 52.666 55.2726 52.7873 54.0597 52.9086C54.181 52.666 54.3023 52.4235 54.3023 52.0596C54.5449 50.7253 53.9384 49.7549 53.5745 49.8762C53.0893 49.9975 52.8467 50.8466 52.6041 51.817C52.4828 52.3022 52.4828 52.7873 52.4828 53.2725C52.4828 53.2725 52.4828 53.2725 52.3615 53.2725C51.5125 53.3938 50.6634 53.3938 49.8143 53.3938C49.9356 53.2725 49.9356 53.1512 49.9356 52.9086C50.2995 51.6957 49.8143 50.604 49.3291 50.7253C48.8439 50.7253 48.4801 51.5744 48.2375 52.4234C48.1162 52.666 48.1162 53.0299 47.9949 53.2725C47.1458 53.2725 46.418 53.1512 45.569 53.1512C45.6903 53.0299 45.9328 52.7873 46.0541 52.5447C46.418 51.817 46.0541 51.0892 45.6903 50.9679C45.2051 50.8466 44.7199 51.3318 44.4773 51.817C44.356 52.1809 44.2347 52.666 44.356 52.9086C43.6282 52.7873 42.9004 52.666 42.294 52.5447C42.5366 52.4235 42.6578 52.1809 42.7791 51.9383C43.0217 51.3318 42.9004 50.604 42.4153 50.4827C41.9301 50.3614 41.4449 50.7253 41.2023 51.3318C41.081 51.6957 41.081 52.0596 41.2023 52.4234C40.4745 52.3022 39.868 52.1809 39.3829 52.0596C39.3829 51.9383 39.5042 47.5716 39.5042 45.1457C39.868 45.3883 40.1106 45.5096 40.5958 45.7522C42.4153 46.7225 45.3264 47.5716 48.6014 47.4503C51.8764 47.329 54.6662 46.2374 56.4856 44.9031C56.9708 44.5392 57.3347 44.1753 57.6986 43.8114C57.6986 44.1753 57.8199 44.4179 57.8199 44.7818C58.1837 48.4207 58.1837 51.817 58.4263 51.817C58.5476 51.817 58.6689 50.7253 58.7902 48.542C58.9115 46.3586 58.7902 44.2966 58.5476 42.3559C58.305 40.2938 57.5773 38.1105 55.8791 37.0188C55.1513 36.655 54.4236 36.2911 53.6958 36.1698C53.6958 36.0485 53.8171 36.0485 53.8171 36.0485C54.3023 35.3207 54.7875 34.1077 55.2726 32.5309C55.6365 30.954 56.0004 28.892 55.7578 26.4661C55.6365 24.0402 55.03 21.3717 53.8171 18.5819C51.0273 11.668 45.2051 6.57354 38.2912 4.8754C34.4097 4.02632 30.1644 3.66244 25.7977 4.39021C21.5523 5.11799 17.0644 6.93743 13.5468 10.0911C12.5764 10.9402 11.7274 11.7893 10.9996 12.7596C10.5144 13.0022 10.0292 13.2448 9.30145 13.73C7.7246 14.8217 5.78386 16.8837 4.4496 20.0374C2.99405 23.0698 2.02368 27.0726 2.14498 31.5605C2.38757 35.9272 3.72183 40.9003 6.63293 45.267ZM3.84312 32.0457C4.5709 32.4096 5.54127 32.4096 6.14775 32.0457C6.39034 33.6226 6.63293 34.8355 7.11812 36.4124C6.87552 36.5337 6.51164 36.655 6.14775 36.7763C5.54127 36.8976 5.05608 36.7763 4.5709 36.655C4.20701 35.0781 3.96442 33.5013 3.84312 32.0457ZM5.17738 38.3531C5.54127 38.4744 5.90516 38.4744 6.39034 38.4744C6.87552 38.3531 7.36071 38.2318 7.7246 37.9892C7.96719 38.5957 8.20978 39.2022 8.45237 39.6874C8.81626 40.5364 9.42274 41.3855 9.90793 42.1133C9.54404 42.3559 9.18015 42.7198 8.81626 43.0837C8.45237 43.4475 8.20978 43.6901 7.84589 43.8114C6.75423 42.1133 5.78386 40.2938 5.17738 38.3531ZM11.2422 47.9355C10.2718 47.0864 9.42274 46.1161 8.69497 45.1457C9.18015 45.0244 9.54404 44.7818 9.90793 44.4179C10.2718 44.054 10.5144 43.6901 10.6357 43.3262C10.8783 43.6901 11.1209 44.054 11.3635 44.2966C11.8487 44.9031 12.3338 45.3883 12.819 45.8735C12.5764 45.9948 12.2126 46.3586 11.97 46.6012C11.7274 47.0864 11.4848 47.4503 11.2422 47.9355ZM16.5792 51.5744C15.3662 50.9679 14.032 50.2401 12.9403 49.2698C12.6977 49.0272 12.4551 48.7846 12.2126 48.6633C12.5764 48.542 13.0616 48.1781 13.4255 47.8142C13.7894 47.4503 13.9107 47.2077 14.1533 46.8438C15.3662 47.9355 16.7005 48.9059 18.0348 49.6336C17.7922 49.8762 17.6709 50.1188 17.4283 50.3614C17.0644 50.7253 16.8218 51.2105 16.5792 51.5744ZM23.7357 54.0003C22.0375 53.6364 20.3394 53.2725 18.6412 52.5447C18.3986 52.4235 18.1561 52.3022 17.7922 52.1809C18.3986 51.817 18.8838 51.2105 19.1264 50.3614C20.9459 51.3318 22.7653 52.0596 24.4634 52.5447C24.2209 52.7873 23.857 53.2725 23.7357 54.0003ZM37.6847 53.3938C37.5634 53.3938 37.4421 53.5151 37.1995 53.5151C35.5014 54.0003 32.8329 54.4855 29.6792 54.4855C28.3449 54.4855 26.8894 54.3642 25.4338 54.2429C25.4338 54.2429 25.4338 54.2429 25.4338 54.1216C25.6764 53.6364 25.6764 53.1512 25.4338 52.7873C28.3449 53.5151 30.8921 53.7577 32.8329 53.7577C33.6819 53.7577 34.4097 53.7577 35.0162 53.6364C35.6227 53.6364 36.2292 53.5151 36.5931 53.3938C36.9569 53.2725 37.3208 53.2725 37.5634 53.1512C37.6847 53.2725 37.6847 53.2725 37.6847 53.3938ZM39.6255 53.1512C43.2643 54.8494 48.1162 55.4559 52.4828 54.7281C53.8171 54.3642 54.9088 54.1216 55.8791 53.7577C57.2134 53.2725 57.9412 52.666 58.305 52.1809C58.1837 52.666 58.0624 53.6364 57.9412 54.9707C57.8199 55.941 57.6986 57.2753 57.456 58.7308C57.3347 59.4586 57.0921 60.1864 56.6069 60.5503C56.1217 61.0355 55.3939 61.2781 54.5449 61.5207C52.7254 61.8845 50.7847 62.3697 48.6014 62.3697C46.5393 62.3697 44.2347 62.2484 41.9301 61.5207C40.8384 61.1568 39.7467 60.6716 39.3829 59.8225C39.2616 59.4586 39.1403 58.8521 39.2616 58.2457C39.2616 57.6392 39.3829 57.0327 39.3829 56.3049C39.3829 55.3346 39.3829 54.2429 39.5042 53.2725C39.5042 53.1512 39.6255 53.1512 39.6255 53.1512ZM55.2726 38.1105C56.0004 38.4744 56.4856 39.2022 56.8495 40.0512C57.2134 40.9003 57.456 41.8707 57.5773 42.7198C57.2134 43.0836 56.6069 43.5688 55.8791 43.9327C54.181 44.7818 51.5125 45.6309 48.6014 45.7522C45.6903 45.8735 43.0217 45.267 41.081 44.6605C40.4745 44.4179 39.9893 44.2966 39.5042 44.054C39.5042 43.9327 39.5042 43.8114 39.5042 43.6901C39.5042 42.3559 39.5042 40.9003 39.868 39.93C39.9893 39.3235 40.2319 39.0809 40.7171 38.717C41.2023 38.3531 41.6875 38.1105 42.294 37.9892C43.3856 37.6253 44.5986 37.2614 45.8115 37.1401C46.9032 37.0188 48.1162 37.0188 49.3291 37.0188C50.5421 37.0188 51.6338 37.1401 52.6041 37.2614C53.5745 37.3827 54.4236 37.7466 55.2726 38.1105ZM14.7598 11.3041C19.7329 6.69484 28.1023 4.26892 37.9273 6.45225C44.356 7.9078 49.8143 12.6383 52.8467 18.9457C54.0597 21.493 54.6662 24.1615 54.9087 26.3448C55.1513 28.6494 54.9088 30.5902 54.6662 32.167C54.3023 33.7439 53.9384 34.9568 53.5745 35.8059C53.5745 35.9272 53.4532 35.9272 53.4532 36.0485C52.1189 35.6846 50.7847 35.6846 49.2078 35.5633C47.9949 35.442 46.7819 35.442 45.4477 35.5633C44.1134 35.6846 42.9004 36.0485 41.5662 36.4124C40.9597 36.655 40.2319 36.8976 39.6255 37.3827C38.8977 37.8679 38.4125 38.5957 38.1699 39.4448C37.6847 40.9003 37.806 42.3559 37.6847 43.6901C37.5634 49.391 37.6847 45.9948 37.5634 53.0299C36.8356 53.0299 35.2588 53.1512 32.8329 53.0299C29.5579 52.9086 24.8273 52.1809 19.7329 49.2698C17.1857 47.8142 14.6385 45.8735 12.5764 43.3262C11.97 42.7198 11.6061 41.992 10.9996 41.2642C10.6357 40.5364 10.0292 39.8087 9.66533 38.9596C9.30145 38.1105 8.93756 37.2614 8.57367 36.2911C8.57367 36.0485 8.57367 35.8059 8.45237 35.6846C8.33108 35.0781 8.20978 34.4716 8.08849 33.7439C7.23941 30.105 7.36071 25.9809 8.45237 21.9781C9.42274 18.0967 11.6061 14.2152 14.7598 11.3041ZM9.78663 14.2152C9.90793 14.0939 10.0292 13.9726 10.2718 13.8513C9.05885 15.5494 8.08849 17.4902 7.48201 19.4309C7.36071 19.4309 7.23941 19.3096 7.11812 19.3096C6.75423 19.1883 6.51164 19.1883 6.26905 19.1883C7.36071 16.8837 8.69496 15.3069 9.78663 14.2152ZM5.66256 20.5226C5.90516 20.7652 6.26905 21.0078 6.63293 21.1291H6.87553C6.87553 21.2504 6.75423 21.493 6.75423 21.6143C6.51164 22.4633 6.39034 23.3124 6.26905 24.2828C6.02645 24.2828 5.78386 24.1615 5.54127 24.1615C5.17738 24.0402 4.93479 24.0402 4.6922 23.9189C4.81349 22.5846 5.17738 21.493 5.66256 20.5226ZM5.05608 25.7383C5.41997 25.8596 5.78386 25.8596 6.02645 25.7383C5.90516 27.4365 5.90516 29.1346 6.02645 30.8328C5.66257 30.7115 5.29868 30.5902 4.93479 30.5902C4.5709 30.5902 4.20701 30.4689 3.84312 30.4689C3.84312 28.6494 3.96442 26.9513 4.20701 25.3744C4.4496 25.4957 4.6922 25.617 5.05608 25.7383Z"/>
</mask>
<path d="M6.63293 45.267C8.08849 47.4503 9.90793 49.2698 11.8487 50.7253C13.7894 52.1809 15.9727 53.2725 18.0348 54.1216C22.2801 55.6984 26.2829 56.0623 29.6792 55.8197C33.0755 55.5771 35.6227 54.8494 37.4421 54.2429C37.5634 54.2429 37.5634 54.2429 37.6847 54.1216V56.3049C37.6847 56.9114 37.5634 57.6392 37.5634 58.367C37.5634 59.0947 37.5634 59.8225 37.9273 60.6716C38.5338 62.0058 39.9893 62.7336 41.4449 63.2188C44.8412 64.1892 48.6014 64.1892 51.8763 63.5827C52.968 63.3401 53.8171 63.0975 54.7875 62.8549C55.7578 62.6123 56.7282 62.2484 57.456 61.5207C58.1837 60.6716 58.305 59.8225 58.4263 59.0947C58.6689 57.5179 58.5476 56.3049 58.6689 55.2133C58.6689 53.2725 58.6689 52.1809 58.5476 51.9383C58.4263 51.817 58.0624 51.9383 57.5773 52.1809C57.6986 51.9383 57.8199 51.817 57.8199 51.5744C58.0624 50.8466 57.9412 50.1188 57.6986 49.6336C57.456 49.1485 57.2134 49.0272 56.9708 49.0272C56.4856 49.2698 56.4856 50.1188 56.1217 51.0892C56.0004 51.6957 55.7578 52.3022 55.6365 52.666C55.5152 52.666 55.2726 52.7873 54.0597 52.9086C54.181 52.666 54.3023 52.4235 54.3023 52.0596C54.5449 50.7253 53.9384 49.7549 53.5745 49.8762C53.0893 49.9975 52.8467 50.8466 52.6041 51.817C52.4828 52.3022 52.4828 52.7873 52.4828 53.2725C52.4828 53.2725 52.4828 53.2725 52.3615 53.2725C51.5125 53.3938 50.6634 53.3938 49.8143 53.3938C49.9356 53.2725 49.9356 53.1512 49.9356 52.9086C50.2995 51.6957 49.8143 50.604 49.3291 50.7253C48.8439 50.7253 48.4801 51.5744 48.2375 52.4234C48.1162 52.666 48.1162 53.0299 47.9949 53.2725C47.1458 53.2725 46.418 53.1512 45.569 53.1512C45.6903 53.0299 45.9328 52.7873 46.0541 52.5447C46.418 51.817 46.0541 51.0892 45.6903 50.9679C45.2051 50.8466 44.7199 51.3318 44.4773 51.817C44.356 52.1809 44.2347 52.666 44.356 52.9086C43.6282 52.7873 42.9004 52.666 42.294 52.5447C42.5366 52.4235 42.6578 52.1809 42.7791 51.9383C43.0217 51.3318 42.9004 50.604 42.4153 50.4827C41.9301 50.3614 41.4449 50.7253 41.2023 51.3318C41.081 51.6957 41.081 52.0596 41.2023 52.4234C40.4745 52.3022 39.868 52.1809 39.3829 52.0596C39.3829 51.9383 39.5042 47.5716 39.5042 45.1457C39.868 45.3883 40.1106 45.5096 40.5958 45.7522C42.4153 46.7225 45.3264 47.5716 48.6014 47.4503C51.8764 47.329 54.6662 46.2374 56.4856 44.9031C56.9708 44.5392 57.3347 44.1753 57.6986 43.8114C57.6986 44.1753 57.8199 44.4179 57.8199 44.7818C58.1837 48.4207 58.1837 51.817 58.4263 51.817C58.5476 51.817 58.6689 50.7253 58.7902 48.542C58.9115 46.3586 58.7902 44.2966 58.5476 42.3559C58.305 40.2938 57.5773 38.1105 55.8791 37.0188C55.1513 36.655 54.4236 36.2911 53.6958 36.1698C53.6958 36.0485 53.8171 36.0485 53.8171 36.0485C54.3023 35.3207 54.7875 34.1077 55.2726 32.5309C55.6365 30.954 56.0004 28.892 55.7578 26.4661C55.6365 24.0402 55.03 21.3717 53.8171 18.5819C51.0273 11.668 45.2051 6.57354 38.2912 4.8754C34.4097 4.02632 30.1644 3.66244 25.7977 4.39021C21.5523 5.11799 17.0644 6.93743 13.5468 10.0911C12.5764 10.9402 11.7274 11.7893 10.9996 12.7596C10.5144 13.0022 10.0292 13.2448 9.30145 13.73C7.7246 14.8217 5.78386 16.8837 4.4496 20.0374C2.99405 23.0698 2.02368 27.0726 2.14498 31.5605C2.38757 35.9272 3.72183 40.9003 6.63293 45.267ZM3.84312 32.0457C4.5709 32.4096 5.54127 32.4096 6.14775 32.0457C6.39034 33.6226 6.63293 34.8355 7.11812 36.4124C6.87552 36.5337 6.51164 36.655 6.14775 36.7763C5.54127 36.8976 5.05608 36.7763 4.5709 36.655C4.20701 35.0781 3.96442 33.5013 3.84312 32.0457ZM5.17738 38.3531C5.54127 38.4744 5.90516 38.4744 6.39034 38.4744C6.87552 38.3531 7.36071 38.2318 7.7246 37.9892C7.96719 38.5957 8.20978 39.2022 8.45237 39.6874C8.81626 40.5364 9.42274 41.3855 9.90793 42.1133C9.54404 42.3559 9.18015 42.7198 8.81626 43.0837C8.45237 43.4475 8.20978 43.6901 7.84589 43.8114C6.75423 42.1133 5.78386 40.2938 5.17738 38.3531ZM11.2422 47.9355C10.2718 47.0864 9.42274 46.1161 8.69497 45.1457C9.18015 45.0244 9.54404 44.7818 9.90793 44.4179C10.2718 44.054 10.5144 43.6901 10.6357 43.3262C10.8783 43.6901 11.1209 44.054 11.3635 44.2966C11.8487 44.9031 12.3338 45.3883 12.819 45.8735C12.5764 45.9948 12.2126 46.3586 11.97 46.6012C11.7274 47.0864 11.4848 47.4503 11.2422 47.9355ZM16.5792 51.5744C15.3662 50.9679 14.032 50.2401 12.9403 49.2698C12.6977 49.0272 12.4551 48.7846 12.2126 48.6633C12.5764 48.542 13.0616 48.1781 13.4255 47.8142C13.7894 47.4503 13.9107 47.2077 14.1533 46.8438C15.3662 47.9355 16.7005 48.9059 18.0348 49.6336C17.7922 49.8762 17.6709 50.1188 17.4283 50.3614C17.0644 50.7253 16.8218 51.2105 16.5792 51.5744ZM23.7357 54.0003C22.0375 53.6364 20.3394 53.2725 18.6412 52.5447C18.3986 52.4235 18.1561 52.3022 17.7922 52.1809C18.3986 51.817 18.8838 51.2105 19.1264 50.3614C20.9459 51.3318 22.7653 52.0596 24.4634 52.5447C24.2209 52.7873 23.857 53.2725 23.7357 54.0003ZM37.6847 53.3938C37.5634 53.3938 37.4421 53.5151 37.1995 53.5151C35.5014 54.0003 32.8329 54.4855 29.6792 54.4855C28.3449 54.4855 26.8894 54.3642 25.4338 54.2429C25.4338 54.2429 25.4338 54.2429 25.4338 54.1216C25.6764 53.6364 25.6764 53.1512 25.4338 52.7873C28.3449 53.5151 30.8921 53.7577 32.8329 53.7577C33.6819 53.7577 34.4097 53.7577 35.0162 53.6364C35.6227 53.6364 36.2292 53.5151 36.5931 53.3938C36.9569 53.2725 37.3208 53.2725 37.5634 53.1512C37.6847 53.2725 37.6847 53.2725 37.6847 53.3938ZM39.6255 53.1512C43.2643 54.8494 48.1162 55.4559 52.4828 54.7281C53.8171 54.3642 54.9088 54.1216 55.8791 53.7577C57.2134 53.2725 57.9412 52.666 58.305 52.1809C58.1837 52.666 58.0624 53.6364 57.9412 54.9707C57.8199 55.941 57.6986 57.2753 57.456 58.7308C57.3347 59.4586 57.0921 60.1864 56.6069 60.5503C56.1217 61.0355 55.3939 61.2781 54.5449 61.5207C52.7254 61.8845 50.7847 62.3697 48.6014 62.3697C46.5393 62.3697 44.2347 62.2484 41.9301 61.5207C40.8384 61.1568 39.7467 60.6716 39.3829 59.8225C39.2616 59.4586 39.1403 58.8521 39.2616 58.2457C39.2616 57.6392 39.3829 57.0327 39.3829 56.3049C39.3829 55.3346 39.3829 54.2429 39.5042 53.2725C39.5042 53.1512 39.6255 53.1512 39.6255 53.1512ZM55.2726 38.1105C56.0004 38.4744 56.4856 39.2022 56.8495 40.0512C57.2134 40.9003 57.456 41.8707 57.5773 42.7198C57.2134 43.0836 56.6069 43.5688 55.8791 43.9327C54.181 44.7818 51.5125 45.6309 48.6014 45.7522C45.6903 45.8735 43.0217 45.267 41.081 44.6605C40.4745 44.4179 39.9893 44.2966 39.5042 44.054C39.5042 43.9327 39.5042 43.8114 39.5042 43.6901C39.5042 42.3559 39.5042 40.9003 39.868 39.93C39.9893 39.3235 40.2319 39.0809 40.7171 38.717C41.2023 38.3531 41.6875 38.1105 42.294 37.9892C43.3856 37.6253 44.5986 37.2614 45.8115 37.1401C46.9032 37.0188 48.1162 37.0188 49.3291 37.0188C50.5421 37.0188 51.6338 37.1401 52.6041 37.2614C53.5745 37.3827 54.4236 37.7466 55.2726 38.1105ZM14.7598 11.3041C19.7329 6.69484 28.1023 4.26892 37.9273 6.45225C44.356 7.9078 49.8143 12.6383 52.8467 18.9457C54.0597 21.493 54.6662 24.1615 54.9087 26.3448C55.1513 28.6494 54.9088 30.5902 54.6662 32.167C54.3023 33.7439 53.9384 34.9568 53.5745 35.8059C53.5745 35.9272 53.4532 35.9272 53.4532 36.0485C52.1189 35.6846 50.7847 35.6846 49.2078 35.5633C47.9949 35.442 46.7819 35.442 45.4477 35.5633C44.1134 35.6846 42.9004 36.0485 41.5662 36.4124C40.9597 36.655 40.2319 36.8976 39.6255 37.3827C38.8977 37.8679 38.4125 38.5957 38.1699 39.4448C37.6847 40.9003 37.806 42.3559 37.6847 43.6901C37.5634 49.391 37.6847 45.9948 37.5634 53.0299C36.8356 53.0299 35.2588 53.1512 32.8329 53.0299C29.5579 52.9086 24.8273 52.1809 19.7329 49.2698C17.1857 47.8142 14.6385 45.8735 12.5764 43.3262C11.97 42.7198 11.6061 41.992 10.9996 41.2642C10.6357 40.5364 10.0292 39.8087 9.66533 38.9596C9.30145 38.1105 8.93756 37.2614 8.57367 36.2911C8.57367 36.0485 8.57367 35.8059 8.45237 35.6846C8.33108 35.0781 8.20978 34.4716 8.08849 33.7439C7.23941 30.105 7.36071 25.9809 8.45237 21.9781C9.42274 18.0967 11.6061 14.2152 14.7598 11.3041ZM9.78663 14.2152C9.90793 14.0939 10.0292 13.9726 10.2718 13.8513C9.05885 15.5494 8.08849 17.4902 7.48201 19.4309C7.36071 19.4309 7.23941 19.3096 7.11812 19.3096C6.75423 19.1883 6.51164 19.1883 6.26905 19.1883C7.36071 16.8837 8.69496 15.3069 9.78663 14.2152ZM5.66256 20.5226C5.90516 20.7652 6.26905 21.0078 6.63293 21.1291H6.87553C6.87553 21.2504 6.75423 21.493 6.75423 21.6143C6.51164 22.4633 6.39034 23.3124 6.26905 24.2828C6.02645 24.2828 5.78386 24.1615 5.54127 24.1615C5.17738 24.0402 4.93479 24.0402 4.6922 23.9189C4.81349 22.5846 5.17738 21.493 5.66256 20.5226ZM5.05608 25.7383C5.41997 25.8596 5.78386 25.8596 6.02645 25.7383C5.90516 27.4365 5.90516 29.1346 6.02645 30.8328C5.66257 30.7115 5.29868 30.5902 4.93479 30.5902C4.5709 30.5902 4.20701 30.4689 3.84312 30.4689C3.84312 28.6494 3.96442 26.9513 4.20701 25.3744C4.4496 25.4957 4.6922 25.617 5.05608 25.7383Z" fill="black"/>
<path d="M6.63293 45.267C8.08849 47.4503 9.90793 49.2698 11.8487 50.7253C13.7894 52.1809 15.9727 53.2725 18.0348 54.1216C22.2801 55.6984 26.2829 56.0623 29.6792 55.8197C33.0755 55.5771 35.6227 54.8494 37.4421 54.2429C37.5634 54.2429 37.5634 54.2429 37.6847 54.1216V56.3049C37.6847 56.9114 37.5634 57.6392 37.5634 58.367C37.5634 59.0947 37.5634 59.8225 37.9273 60.6716C38.5338 62.0058 39.9893 62.7336 41.4449 63.2188C44.8412 64.1892 48.6014 64.1892 51.8763 63.5827C52.968 63.3401 53.8171 63.0975 54.7875 62.8549C55.7578 62.6123 56.7282 62.2484 57.456 61.5207C58.1837 60.6716 58.305 59.8225 58.4263 59.0947C58.6689 57.5179 58.5476 56.3049 58.6689 55.2133C58.6689 53.2725 58.6689 52.1809 58.5476 51.9383C58.4263 51.817 58.0624 51.9383 57.5773 52.1809C57.6986 51.9383 57.8199 51.817 57.8199 51.5744C58.0624 50.8466 57.9412 50.1188 57.6986 49.6336C57.456 49.1485 57.2134 49.0272 56.9708 49.0272C56.4856 49.2698 56.4856 50.1188 56.1217 51.0892C56.0004 51.6957 55.7578 52.3022 55.6365 52.666C55.5152 52.666 55.2726 52.7873 54.0597 52.9086C54.181 52.666 54.3023 52.4235 54.3023 52.0596C54.5449 50.7253 53.9384 49.7549 53.5745 49.8762C53.0893 49.9975 52.8467 50.8466 52.6041 51.817C52.4828 52.3022 52.4828 52.7873 52.4828 53.2725C52.4828 53.2725 52.4828 53.2725 52.3615 53.2725C51.5125 53.3938 50.6634 53.3938 49.8143 53.3938C49.9356 53.2725 49.9356 53.1512 49.9356 52.9086C50.2995 51.6957 49.8143 50.604 49.3291 50.7253C48.8439 50.7253 48.4801 51.5744 48.2375 52.4234C48.1162 52.666 48.1162 53.0299 47.9949 53.2725C47.1458 53.2725 46.418 53.1512 45.569 53.1512C45.6903 53.0299 45.9328 52.7873 46.0541 52.5447C46.418 51.817 46.0541 51.0892 45.6903 50.9679C45.2051 50.8466 44.7199 51.3318 44.4773 51.817C44.356 52.1809 44.2347 52.666 44.356 52.9086C43.6282 52.7873 42.9004 52.666 42.294 52.5447C42.5366 52.4235 42.6578 52.1809 42.7791 51.9383C43.0217 51.3318 42.9004 50.604 42.4153 50.4827C41.9301 50.3614 41.4449 50.7253 41.2023 51.3318C41.081 51.6957 41.081 52.0596 41.2023 52.4234C40.4745 52.3022 39.868 52.1809 39.3829 52.0596C39.3829 51.9383 39.5042 47.5716 39.5042 45.1457C39.868 45.3883 40.1106 45.5096 40.5958 45.7522C42.4153 46.7225 45.3264 47.5716 48.6014 47.4503C51.8764 47.329 54.6662 46.2374 56.4856 44.9031C56.9708 44.5392 57.3347 44.1753 57.6986 43.8114C57.6986 44.1753 57.8199 44.4179 57.8199 44.7818C58.1837 48.4207 58.1837 51.817 58.4263 51.817C58.5476 51.817 58.6689 50.7253 58.7902 48.542C58.9115 46.3586 58.7902 44.2966 58.5476 42.3559C58.305 40.2938 57.5773 38.1105 55.8791 37.0188C55.1513 36.655 54.4236 36.2911 53.6958 36.1698C53.6958 36.0485 53.8171 36.0485 53.8171 36.0485C54.3023 35.3207 54.7875 34.1077 55.2726 32.5309C55.6365 30.954 56.0004 28.892 55.7578 26.4661C55.6365 24.0402 55.03 21.3717 53.8171 18.5819C51.0273 11.668 45.2051 6.57354 38.2912 4.8754C34.4097 4.02632 30.1644 3.66244 25.7977 4.39021C21.5523 5.11799 17.0644 6.93743 13.5468 10.0911C12.5764 10.9402 11.7274 11.7893 10.9996 12.7596C10.5144 13.0022 10.0292 13.2448 9.30145 13.73C7.7246 14.8217 5.78386 16.8837 4.4496 20.0374C2.99405 23.0698 2.02368 27.0726 2.14498 31.5605C2.38757 35.9272 3.72183 40.9003 6.63293 45.267ZM3.84312 32.0457C4.5709 32.4096 5.54127 32.4096 6.14775 32.0457C6.39034 33.6226 6.63293 34.8355 7.11812 36.4124C6.87552 36.5337 6.51164 36.655 6.14775 36.7763C5.54127 36.8976 5.05608 36.7763 4.5709 36.655C4.20701 35.0781 3.96442 33.5013 3.84312 32.0457ZM5.17738 38.3531C5.54127 38.4744 5.90516 38.4744 6.39034 38.4744C6.87552 38.3531 7.36071 38.2318 7.7246 37.9892C7.96719 38.5957 8.20978 39.2022 8.45237 39.6874C8.81626 40.5364 9.42274 41.3855 9.90793 42.1133C9.54404 42.3559 9.18015 42.7198 8.81626 43.0837C8.45237 43.4475 8.20978 43.6901 7.84589 43.8114C6.75423 42.1133 5.78386 40.2938 5.17738 38.3531ZM11.2422 47.9355C10.2718 47.0864 9.42274 46.1161 8.69497 45.1457C9.18015 45.0244 9.54404 44.7818 9.90793 44.4179C10.2718 44.054 10.5144 43.6901 10.6357 43.3262C10.8783 43.6901 11.1209 44.054 11.3635 44.2966C11.8487 44.9031 12.3338 45.3883 12.819 45.8735C12.5764 45.9948 12.2126 46.3586 11.97 46.6012C11.7274 47.0864 11.4848 47.4503 11.2422 47.9355ZM16.5792 51.5744C15.3662 50.9679 14.032 50.2401 12.9403 49.2698C12.6977 49.0272 12.4551 48.7846 12.2126 48.6633C12.5764 48.542 13.0616 48.1781 13.4255 47.8142C13.7894 47.4503 13.9107 47.2077 14.1533 46.8438C15.3662 47.9355 16.7005 48.9059 18.0348 49.6336C17.7922 49.8762 17.6709 50.1188 17.4283 50.3614C17.0644 50.7253 16.8218 51.2105 16.5792 51.5744ZM23.7357 54.0003C22.0375 53.6364 20.3394 53.2725 18.6412 52.5447C18.3986 52.4235 18.1561 52.3022 17.7922 52.1809C18.3986 51.817 18.8838 51.2105 19.1264 50.3614C20.9459 51.3318 22.7653 52.0596 24.4634 52.5447C24.2209 52.7873 23.857 53.2725 23.7357 54.0003ZM37.6847 53.3938C37.5634 53.3938 37.4421 53.5151 37.1995 53.5151C35.5014 54.0003 32.8329 54.4855 29.6792 54.4855C28.3449 54.4855 26.8894 54.3642 25.4338 54.2429C25.4338 54.2429 25.4338 54.2429 25.4338 54.1216C25.6764 53.6364 25.6764 53.1512 25.4338 52.7873C28.3449 53.5151 30.8921 53.7577 32.8329 53.7577C33.6819 53.7577 34.4097 53.7577 35.0162 53.6364C35.6227 53.6364 36.2292 53.5151 36.5931 53.3938C36.9569 53.2725 37.3208 53.2725 37.5634 53.1512C37.6847 53.2725 37.6847 53.2725 37.6847 53.3938ZM39.6255 53.1512C43.2643 54.8494 48.1162 55.4559 52.4828 54.7281C53.8171 54.3642 54.9088 54.1216 55.8791 53.7577C57.2134 53.2725 57.9412 52.666 58.305 52.1809C58.1837 52.666 58.0624 53.6364 57.9412 54.9707C57.8199 55.941 57.6986 57.2753 57.456 58.7308C57.3347 59.4586 57.0921 60.1864 56.6069 60.5503C56.1217 61.0355 55.3939 61.2781 54.5449 61.5207C52.7254 61.8845 50.7847 62.3697 48.6014 62.3697C46.5393 62.3697 44.2347 62.2484 41.9301 61.5207C40.8384 61.1568 39.7467 60.6716 39.3829 59.8225C39.2616 59.4586 39.1403 58.8521 39.2616 58.2457C39.2616 57.6392 39.3829 57.0327 39.3829 56.3049C39.3829 55.3346 39.3829 54.2429 39.5042 53.2725C39.5042 53.1512 39.6255 53.1512 39.6255 53.1512ZM55.2726 38.1105C56.0004 38.4744 56.4856 39.2022 56.8495 40.0512C57.2134 40.9003 57.456 41.8707 57.5773 42.7198C57.2134 43.0836 56.6069 43.5688 55.8791 43.9327C54.181 44.7818 51.5125 45.6309 48.6014 45.7522C45.6903 45.8735 43.0217 45.267 41.081 44.6605C40.4745 44.4179 39.9893 44.2966 39.5042 44.054C39.5042 43.9327 39.5042 43.8114 39.5042 43.6901C39.5042 42.3559 39.5042 40.9003 39.868 39.93C39.9893 39.3235 40.2319 39.0809 40.7171 38.717C41.2023 38.3531 41.6875 38.1105 42.294 37.9892C43.3856 37.6253 44.5986 37.2614 45.8115 37.1401C46.9032 37.0188 48.1162 37.0188 49.3291 37.0188C50.5421 37.0188 51.6338 37.1401 52.6041 37.2614C53.5745 37.3827 54.4236 37.7466 55.2726 38.1105ZM14.7598 11.3041C19.7329 6.69484 28.1023 4.26892 37.9273 6.45225C44.356 7.9078 49.8143 12.6383 52.8467 18.9457C54.0597 21.493 54.6662 24.1615 54.9087 26.3448C55.1513 28.6494 54.9088 30.5902 54.6662 32.167C54.3023 33.7439 53.9384 34.9568 53.5745 35.8059C53.5745 35.9272 53.4532 35.9272 53.4532 36.0485C52.1189 35.6846 50.7847 35.6846 49.2078 35.5633C47.9949 35.442 46.7819 35.442 45.4477 35.5633C44.1134 35.6846 42.9004 36.0485 41.5662 36.4124C40.9597 36.655 40.2319 36.8976 39.6255 37.3827C38.8977 37.8679 38.4125 38.5957 38.1699 39.4448C37.6847 40.9003 37.806 42.3559 37.6847 43.6901C37.5634 49.391 37.6847 45.9948 37.5634 53.0299C36.8356 53.0299 35.2588 53.1512 32.8329 53.0299C29.5579 52.9086 24.8273 52.1809 19.7329 49.2698C17.1857 47.8142 14.6385 45.8735 12.5764 43.3262C11.97 42.7198 11.6061 41.992 10.9996 41.2642C10.6357 40.5364 10.0292 39.8087 9.66533 38.9596C9.30145 38.1105 8.93756 37.2614 8.57367 36.2911C8.57367 36.0485 8.57367 35.8059 8.45237 35.6846C8.33108 35.0781 8.20978 34.4716 8.08849 33.7439C7.23941 30.105 7.36071 25.9809 8.45237 21.9781C9.42274 18.0967 11.6061 14.2152 14.7598 11.3041ZM9.78663 14.2152C9.90793 14.0939 10.0292 13.9726 10.2718 13.8513C9.05885 15.5494 8.08849 17.4902 7.48201 19.4309C7.36071 19.4309 7.23941 19.3096 7.11812 19.3096C6.75423 19.1883 6.51164 19.1883 6.26905 19.1883C7.36071 16.8837 8.69496 15.3069 9.78663 14.2152ZM5.66256 20.5226C5.90516 20.7652 6.26905 21.0078 6.63293 21.1291H6.87553C6.87553 21.2504 6.75423 21.493 6.75423 21.6143C6.51164 22.4633 6.39034 23.3124 6.26905 24.2828C6.02645 24.2828 5.78386 24.1615 5.54127 24.1615C5.17738 24.0402 4.93479 24.0402 4.6922 23.9189C4.81349 22.5846 5.17738 21.493 5.66256 20.5226ZM5.05608 25.7383C5.41997 25.8596 5.78386 25.8596 6.02645 25.7383C5.90516 27.4365 5.90516 29.1346 6.02645 30.8328C5.66257 30.7115 5.29868 30.5902 4.93479 30.5902C4.5709 30.5902 4.20701 30.4689 3.84312 30.4689C3.84312 28.6494 3.96442 26.9513 4.20701 25.3744C4.4496 25.4957 4.6922 25.617 5.05608 25.7383Z" stroke="black" stroke-width="0.2" mask="url(#path-1-outside-1_1539_3465)"/>
<path d="M30.923 34.0778C30.8503 34.0914 30.6324 34.1321 30.2691 34.2C29.9058 34.2679 29.4698 34.3493 28.9612 34.4444C28.4673 34.5178 27.957 34.6038 27.4302 34.7022C26.9034 34.8006 26.4221 34.8906 25.9861 34.972C25.5467 35.0353 25.2271 35.0856 25.0273 35.1229C24.9183 35.1433 24.7804 35.1597 24.6135 35.172C24.4466 35.1844 24.2565 35.173 24.0431 35.1376C23.7706 35.1885 23.5516 35.1731 23.3859 35.0912C23.2168 34.9912 23.0841 34.8844 22.9876 34.7709C22.8232 34.5948 22.7563 34.4381 22.787 34.3008C22.8178 34.1634 22.9535 34.0347 23.1942 33.9145C23.435 33.7943 23.779 33.6736 24.2263 33.5525C24.525 33.4403 24.9814 33.3174 25.5956 33.1838C26.2246 33.0287 26.9024 32.8833 27.629 32.7475C28.3704 32.5902 29.0697 32.4596 29.7271 32.3556C30.3992 32.23 30.9169 32.1333 31.2802 32.0654C31.7525 31.9771 32.1804 31.9536 32.5641 31.9947C32.9444 32.0176 33.244 32.112 33.463 32.2779C33.6355 32.3961 33.7461 32.5352 33.7948 32.6953C33.8582 32.8339 33.8655 32.9735 33.8166 33.1142C33.7677 33.2549 33.6774 33.3752 33.5457 33.475C33.4105 33.5567 33.2396 33.598 33.033 33.599C32.9422 33.616 32.7713 33.6573 32.5204 33.723C32.2661 33.7705 31.9863 33.8322 31.6808 33.908C31.3902 33.9623 31.1376 34.0189 30.923 34.0778ZM27.4532 30.7501C26.9775 30.8202 26.5398 30.8925 26.1402 30.9672C25.7587 31.0385 25.4681 31.0928 25.2683 31.1301C25.1593 31.1505 25.0214 31.1668 24.8545 31.1792C24.6876 31.1916 24.4975 31.1801 24.2841 31.1448C24.0116 31.1957 23.7925 31.1802 23.6268 31.0984C23.4578 30.9984 23.325 30.8916 23.2286 30.778C22.9745 30.5247 22.9519 30.3033 23.1609 30.1139C23.3699 29.9244 23.8054 29.7397 24.4673 29.5596C24.7114 29.4576 25.0679 29.3534 25.5368 29.247C26.0239 29.1372 26.5473 29.0206 27.107 28.8972L27.4532 30.7501ZM26.488 38.2621C26.27 38.3028 26.0663 38.2187 25.8769 38.0097C25.7475 37.9211 25.5972 37.7705 25.4259 37.5582C25.2546 37.3458 25.138 36.9728 25.0759 36.4392C25.0285 35.8841 25.0807 35.0566 25.2324 33.9567C25.2851 33.2325 25.3371 32.7058 25.3884 32.3766C25.4363 32.0293 25.4467 31.7829 25.4195 31.6376C25.3822 31.4378 25.3698 31.2709 25.3824 31.137C25.4097 30.9815 25.4115 30.8401 25.3878 30.713C25.4967 30.6926 25.5871 30.5724 25.6587 30.3522C25.7304 30.132 25.7703 29.8426 25.7785 29.4838C25.7934 29.1615 25.8112 28.9044 25.8318 28.7125C25.8671 28.4991 25.878 28.3561 25.8644 28.2834C25.9281 28.1212 25.9765 27.8771 26.0096 27.5513C26.0609 27.2222 26.1548 26.8192 26.2913 26.3426C26.3348 25.7705 26.3931 25.1768 26.4662 24.5616C26.5358 23.9282 26.614 23.3402 26.7006 22.7977C26.802 22.2335 26.8891 21.7943 26.962 21.4799C27.0566 20.8794 27.138 20.46 27.2063 20.2217C27.2711 19.9652 27.2423 19.8108 27.1197 19.7585C26.9756 19.6914 26.8696 19.4762 26.8017 19.1129C26.7486 18.7281 26.8601 18.3688 27.1361 18.0353C27.2918 17.7618 27.5156 17.5508 27.8074 17.4023C28.0959 17.2356 28.4399 17.1149 28.8396 17.0403C29.2392 16.9656 29.6604 16.9057 30.1031 16.8606C30.4335 16.8177 30.7803 16.7622 31.1436 16.6944C31.5251 16.6231 31.7612 16.579 31.8521 16.562C32.0291 16.6041 32.2442 16.6485 32.4973 16.6952C32.7504 16.7419 32.9763 16.7937 33.1749 16.8506C33.3883 16.886 33.5001 16.9309 33.5103 16.9854C33.5307 17.0944 33.5806 17.1602 33.66 17.183C33.7542 17.1842 33.8485 17.1854 33.9427 17.1866C34.0698 17.1628 34.3008 17.2419 34.6355 17.4237C34.9669 17.5874 35.3085 17.8056 35.6602 18.0782C36.0267 18.3293 36.3024 18.5974 36.4872 18.8825C36.6902 19.1641 36.8626 19.4327 37.0043 19.6882C37.1642 19.9403 37.2463 20.3292 37.2505 20.8548C37.2832 21.1306 37.2887 21.4116 37.267 21.6977C37.2634 21.9803 37.2338 22.1738 37.1781 22.2782C37.0826 22.3713 36.9997 22.4808 36.9292 22.6067C36.8588 22.7327 36.832 22.8411 36.849 22.9319C36.8626 23.0046 36.8239 23.1998 36.7328 23.5176C36.6384 23.8172 36.5162 24.169 36.3661 24.5731C36.2126 24.9589 36.0409 25.3482 35.8511 25.7408C35.6613 26.1335 35.476 26.4501 35.2954 26.6906C35.1135 27.0254 34.8829 27.3505 34.6034 27.6659C34.3421 27.9779 34.0996 28.2394 33.8758 28.4504C33.4443 28.7566 32.9383 29.0673 32.3581 29.3825C31.7959 29.6943 31.2452 29.9664 30.7058 30.1988C30.1631 30.413 29.7174 30.5432 29.3689 30.5895C28.8557 30.7606 28.5241 30.8978 28.3742 31.001C28.2209 31.086 28.1317 31.2625 28.1066 31.5304C28.0598 31.7835 28.0148 32.0457 27.9715 32.317C27.9464 32.5848 27.944 32.7733 27.9644 32.8823C27.9416 32.9617 27.8972 33.1768 27.8311 33.5275C27.7832 33.8749 27.7183 34.2818 27.6362 34.7483C27.5724 35.2114 27.5176 35.6728 27.4719 36.1325C27.4262 36.5923 27.3958 36.9833 27.3809 37.3057C27.3557 37.5736 27.2369 37.7932 27.0246 37.9644C26.8303 38.1323 26.6515 38.2315 26.488 38.2621ZM28.6568 28.4385C28.7431 28.4976 28.9809 28.4625 29.3704 28.3334C29.7598 28.2042 30.2157 27.978 30.7381 27.6549C31.0777 27.4598 31.4121 27.2375 31.7415 26.988C32.089 26.7351 32.415 26.4674 32.7194 26.1849C32.8773 26.0238 33.0392 25.8338 33.2051 25.6148C33.3675 25.3777 33.588 24.9981 33.8665 24.4761C33.904 24.3751 33.9626 24.1855 34.0422 23.9075C34.1366 23.6078 34.2163 23.3298 34.2811 23.0733C34.3971 22.7884 34.491 22.3855 34.5629 21.8645C34.6313 21.3253 34.5896 20.9007 34.4377 20.5907C34.2586 20.1354 34.004 19.7788 33.6738 19.5209C33.3403 19.2448 32.951 19.0732 32.5061 19.0059C32.0929 19.0079 31.7483 19.0253 31.4724 19.058C31.2147 19.0874 30.9366 19.1581 30.638 19.2703C30.3643 19.4155 30.1791 19.5817 30.0825 19.7689C30.0041 19.9527 29.9051 20.3284 29.7855 20.8959C29.7059 21.174 29.5904 21.5622 29.4391 22.0604C29.2844 22.5405 29.1677 23.0229 29.0891 23.5075C28.9861 24.7675 28.8669 25.7392 28.7314 26.4225C28.614 27.1024 28.5376 27.549 28.5023 27.7624C28.5578 27.9588 28.5759 28.1058 28.5565 28.2034C28.5338 28.2829 28.5672 28.3612 28.6568 28.4385Z" fill="black"/>
</svg>
