<svg width="77" height="70" viewBox="0 0 77 70" fill="none" xmlns="http://www.w3.org/2000/svg">
<path d="M46.2694 18.8477C42.2914 19.8942 39.0751 20.9336 36.1912 22.1075C39.8786 16.961 42.7337 10.8945 44.6146 4.79749C44.3977 4.4253 44.1807 4.05312 43.9638 3.68093C43.98 3.58854 44.0001 3.49091 44.0115 3.40495C44.1023 2.71796 43.3033 2.29108 42.8233 2.78583C37.7636 8.04086 33.0964 13.7268 29.3153 17.7504C25.7562 21.5392 22.8729 25.7994 19.3647 29.5337C18.9422 29.9839 19.2178 30.7644 19.8801 30.7776C23.0073 30.7037 24.4991 30.9849 28.1056 30.87C24.4994 33.9056 21.3243 36.6354 17.5981 40.1644C17.1514 40.5877 17.3692 41.396 18.0866 41.4379L25.5371 41.2388C21.1277 47.3576 16.0088 58.2291 12.9387 64.3577C12.6187 64.9964 13.3046 65.7291 13.9375 65.3009C15.2326 65.3359 16.437 64.3348 17.4347 63.3887C26.5468 54.7499 35.4162 46.4963 43.6558 36.9497C43.5625 36.0077 43.4614 35.5343 43.371 35.2655C43.8007 34.7584 43.3928 33.9658 42.7621 34.0542C39.6734 34.4467 37.1174 34.6796 35.1279 34.9662C36.9271 33.6068 45.2964 23.7106 47.0714 21.4985C47.0309 21.0188 46.9905 20.5391 46.9501 20.0594L46.9609 20.0469C47.4208 19.5147 46.9439 18.674 46.2694 18.8477ZM41.0968 35.7306C35.1292 42.6733 26.3472 52.2353 15.8173 61.7307C18.9943 55.288 23.7267 45.7269 27.551 40.9369C27.727 40.7159 27.7631 40.4082 27.6435 40.1492C27.5263 39.8968 27.2809 39.7367 27.0127 39.7367C27.0068 39.7367 27.0009 39.7367 26.9949 39.7367L19.9513 39.9244C23.4033 36.7211 26.4695 34.1199 30.0209 31.1377C30.7673 30.5121 30.3353 29.317 29.2195 29.3565C25.8071 29.5423 23.9504 29.3405 21.5026 29.3089C24.5663 25.8416 27.1835 22.1097 30.316 18.7753C33.1125 15.7973 37.7623 10.3295 41.8768 5.87761C39.7062 11.9261 35.4243 19.4842 33.2586 23.5558C32.9338 24.1663 33.5401 24.8653 34.1581 24.5788C37.1093 23.1948 40.3191 22.028 44.354 20.8831L31.4445 35.8487C30.9811 36.3846 31.469 37.229 32.1433 37.046C34.4817 36.4029 36.9805 36.2131 41.0968 35.7306Z" fill="black"/>
</svg>
