<svg width="77" height="70" viewBox="0 0 77 70" fill="none" xmlns="http://www.w3.org/2000/svg">
<mask id="path-1-outside-1_1539_1333" maskUnits="userSpaceOnUse" x="2.7207" y="5.85718" width="66" height="56" fill="black">
<rect fill="white" x="2.7207" y="5.85718" width="66" height="56"/>
<path d="M13.8284 56.3144C15.692 57.748 17.6512 58.7992 19.5148 59.5638C24.7711 61.7141 30.8398 61.7619 36.2873 59.3727C39.6322 57.8435 41.018 56.4578 41.7347 55.8366C42.4037 55.1198 42.4037 54.9764 42.3081 54.8809C42.2126 54.7853 42.0692 54.7375 41.2569 55.2154C40.4445 55.6932 38.9632 56.7923 35.7616 58.0825C30.4575 60.0894 24.9145 59.8505 20.1838 57.8913C18.4635 57.1745 16.6955 56.1711 14.9753 54.8331C8.76323 49.9113 4.98824 41.8834 5.75279 33.2822C6.6607 24.3464 11.917 16.6531 20.6616 13.3559C25.249 11.5401 30.5531 11.5401 35.3316 13.2603C37.673 14.1682 39.4411 14.9328 41.8781 16.8442C43.7895 18.4211 45.4619 20.2369 46.7043 22.2917C46.7521 22.3872 46.7999 22.4828 46.8477 22.5784C45.5575 23.3907 44.0284 24.3942 42.4037 25.4932C40.6357 22.2917 37.6252 19.5201 33.9936 18.1822C24.1977 14.1682 12.2515 20.9537 10.9613 33.6166C10.1968 42.3613 15.1664 50.1024 21.9518 52.9217C28.2594 55.5021 34.567 53.6385 37.8642 50.1502C38.342 49.6246 38.2942 49.4812 38.1987 49.3856C38.1031 49.2901 37.9597 49.2423 37.3863 49.5768C35.7139 50.4369 30.2186 54.4986 22.6686 51.297C16.6955 48.7166 12.2515 41.7401 12.9205 33.8556C14.0673 22.2917 24.6756 16.3186 33.3724 19.7591C36.7173 20.9537 39.4888 23.3907 41.1613 26.2578C41.1613 26.3056 41.2091 26.3056 41.2091 26.3534C39.68 27.4046 37.9597 28.5515 36.2873 29.6983C36.2395 29.5549 36.1439 29.4116 36.0483 29.2205C35.0926 27.3568 33.3246 25.7799 31.2699 24.9676C25.7268 22.5784 18.798 26.4489 18.0813 33.7122C18.0335 34.429 18.0335 35.1458 18.0813 35.8148C18.7503 41.9312 23.7199 45.8973 28.5939 45.3717C29.7885 45.2761 30.6487 44.9416 31.3654 44.6072C32.7034 43.8904 33.229 43.317 33.468 42.9825C33.7069 42.648 33.6113 42.5524 33.5157 42.4091C33.4202 42.3135 33.3246 42.2179 32.9901 42.3613C32.6556 42.5046 32.0344 42.8869 30.8398 43.317C30.2186 43.5081 29.454 43.6992 28.4983 43.747C23.6721 43.9382 19.5148 39.1597 20.0404 33.8556C20.6139 27.8825 26.1091 24.7287 30.6964 26.4967C32.4645 27.1179 33.9458 28.3603 34.8537 29.8894C34.9493 30.0806 35.0449 30.2717 35.1404 30.4151C32.2256 32.3742 31.1743 33.0432 28.1161 35.0024C26.8259 35.8148 26.0613 36.3404 26.1569 36.4837C26.2047 36.5793 27.1126 36.2926 28.4983 35.6714C29.8841 35.0502 31.7477 34.0945 33.7547 32.9955C34.3759 32.661 34.9971 32.2787 35.6661 31.8964C35.7139 32.0398 35.7138 32.1353 35.7616 32.2787C36.4784 35.6236 36.1917 38.7774 34.0892 41.5011C33.6591 42.0746 33.4202 42.3613 33.468 42.4091C33.5157 42.4568 33.8502 42.2657 34.3759 41.7401C36.3828 39.9242 37.7208 36.6271 36.9563 32.0398C36.9085 31.753 36.8607 31.4663 36.8129 31.1796C38.5809 30.1284 40.3968 29.0293 42.0214 27.9781C42.0692 28.1214 42.1648 28.2648 42.2126 28.4559C44.3629 34.2856 43.9806 42.3135 39.4411 47.7609C39.0588 48.2866 38.6765 48.6211 38.4854 48.86C38.2464 49.0989 38.1509 49.2423 38.1987 49.2901C38.1987 49.3378 38.3898 49.1945 38.6287 49.0034C38.9154 48.7644 39.2977 48.4777 39.7278 47.9999C44.2673 43.4603 45.1274 36.8182 44.0284 30.5584C43.7895 29.1727 43.5983 28.4559 43.1683 27.2613C44.8885 26.1622 45.7964 25.541 47.7078 24.2986C47.899 24.6809 48.0423 25.0632 48.1857 25.4932C48.568 26.5923 48.9024 27.6913 49.0936 28.8382C50.9094 37.535 49.9537 46.0407 44.124 52.7306C43.5506 53.4473 43.0249 53.9252 42.7382 54.2597C42.4037 54.5942 42.2604 54.7853 42.2604 54.8331C42.2604 54.8809 42.4993 54.6897 42.8816 54.403C43.2638 54.1163 43.8373 53.6863 44.4585 52.9695C45.7487 51.6793 47.4689 49.5768 48.8069 46.6141C50.8138 42.2657 51.7695 36.197 50.336 28.5515C50.1448 27.4046 49.8581 26.21 49.4281 25.0154C49.2369 24.5375 49.0458 24.0119 48.8069 23.5341C49.7148 22.9606 50.4793 22.435 51.1961 21.9572C52.2474 22.5306 53.5854 23.0084 54.7322 23.3429C55.1145 23.4385 55.5923 23.5818 56.1657 23.5818C56.7392 23.5341 57.217 23.3429 57.6471 23.104C58.8895 22.4828 66.4872 18.1822 67.2996 16.3663C67.5385 15.8407 67.6341 15.3629 67.6819 14.9328C67.6819 14.6939 67.7297 14.5505 67.6819 14.1682C67.6341 13.8338 67.5385 13.547 67.3474 13.3081C67.204 13.117 66.9651 12.9258 66.774 12.8303C66.6306 12.7825 66.5828 12.7347 66.535 12.7347H66.4872C66.3917 12.6869 66.3439 12.6869 66.2961 12.6869C66.0572 12.6391 65.8183 12.5914 65.6271 12.4958C64.9581 12.3524 63.9069 12.0657 63.2379 12.0657C63.2379 12.0179 63.2379 12.0179 63.2379 11.9701C63.2379 11.2056 62.9512 9.96319 62.8078 9.24642C62.7122 8.81635 62.76 9.00749 62.6167 8.38629C62.5689 8.14737 62.5211 7.86066 62.3778 7.62173C62.2822 7.38281 62.1388 7.23946 61.9477 7.0961C61.8043 6.95275 61.5654 6.90496 61.3265 6.85718C61.0876 6.85718 60.8964 6.85718 60.6575 6.95275C60.4186 7.04832 60.1797 7.19167 59.9407 7.38281C56.2135 10.3455 53.2986 12.4002 51.1961 13.8338C51.1483 13.8815 50.4793 14.3116 50.5271 14.2638C50.4793 14.3116 50.4793 14.455 50.4793 14.5027C50.4316 14.6939 50.4316 14.8372 50.3838 15.0284L50.336 15.3629C50.0971 17.561 50.1449 19.4724 50.2882 20.4758C49.6192 20.8581 48.8547 21.336 47.9945 21.9094C47.9468 21.8138 47.899 21.766 47.8512 21.6705C46.561 19.4724 44.8407 17.4654 42.786 15.7451C40.1101 13.547 37.9119 12.6869 37.7208 12.5914C37.1474 12.3046 36.4784 12.0657 35.8572 11.8268C30.8398 9.86762 25.0101 9.81983 20.0404 11.7312C10.4835 15.1717 4.7971 23.5341 3.8414 33.091C2.93349 42.5524 7.23412 51.1537 13.8284 56.3144ZM51.7217 15.6018L51.7695 15.3151L51.8173 15.2195C51.8173 15.1717 51.8651 15.1717 51.8651 15.1717H51.9129H51.9607C52.343 14.9806 52.6774 14.7417 53.0597 14.5505C55.9268 12.8781 58.316 11.2056 60.6097 9.34199L60.8009 9.19863C60.8486 9.15085 60.8486 9.15085 60.8486 9.15085H60.8964H60.9442C61.1354 9.72426 61.3265 10.3455 61.5176 10.9189C61.7566 11.5879 61.9477 12.0179 62.091 12.3524C62.2344 12.5914 62.33 12.7347 62.4733 12.8303C62.5211 12.9736 62.6167 13.0692 62.9034 13.2603C63.429 13.5948 64.4803 14.0249 65.1015 14.216C65.2926 14.2638 65.4838 14.3594 65.7227 14.455C65.7705 14.455 65.8183 14.5027 65.866 14.5027H65.9138C65.9138 14.5983 65.866 15.2673 65.6749 15.6018C65.436 16.1752 58.1727 21.1448 58.0771 21.1926C57.6948 21.4315 57.3604 21.6705 56.9781 21.9094C56.6436 22.1005 56.3569 22.2917 56.0702 22.2917C55.5445 22.3872 54.6844 22.1483 53.9676 22.005C51.8651 21.5749 52.1996 21.6227 51.9129 21.5749C53.1553 20.7148 54.0632 20.1413 54.6366 19.6635C55.9746 18.66 55.879 18.4211 55.7357 18.1822C55.5923 17.9432 55.4012 17.7521 53.9198 18.4689C53.2031 18.8034 52.2474 19.329 50.8616 20.0936C51.0528 19.0901 51.2917 17.4654 51.7217 15.6018Z"/>
</mask>
<path d="M13.8284 56.3144C15.692 57.748 17.6512 58.7992 19.5148 59.5638C24.7711 61.7141 30.8398 61.7619 36.2873 59.3727C39.6322 57.8435 41.018 56.4578 41.7347 55.8366C42.4037 55.1198 42.4037 54.9764 42.3081 54.8809C42.2126 54.7853 42.0692 54.7375 41.2569 55.2154C40.4445 55.6932 38.9632 56.7923 35.7616 58.0825C30.4575 60.0894 24.9145 59.8505 20.1838 57.8913C18.4635 57.1745 16.6955 56.1711 14.9753 54.8331C8.76323 49.9113 4.98824 41.8834 5.75279 33.2822C6.6607 24.3464 11.917 16.6531 20.6616 13.3559C25.249 11.5401 30.5531 11.5401 35.3316 13.2603C37.673 14.1682 39.4411 14.9328 41.8781 16.8442C43.7895 18.4211 45.4619 20.2369 46.7043 22.2917C46.7521 22.3872 46.7999 22.4828 46.8477 22.5784C45.5575 23.3907 44.0284 24.3942 42.4037 25.4932C40.6357 22.2917 37.6252 19.5201 33.9936 18.1822C24.1977 14.1682 12.2515 20.9537 10.9613 33.6166C10.1968 42.3613 15.1664 50.1024 21.9518 52.9217C28.2594 55.5021 34.567 53.6385 37.8642 50.1502C38.342 49.6246 38.2942 49.4812 38.1987 49.3856C38.1031 49.2901 37.9597 49.2423 37.3863 49.5768C35.7139 50.4369 30.2186 54.4986 22.6686 51.297C16.6955 48.7166 12.2515 41.7401 12.9205 33.8556C14.0673 22.2917 24.6756 16.3186 33.3724 19.7591C36.7173 20.9537 39.4888 23.3907 41.1613 26.2578C41.1613 26.3056 41.2091 26.3056 41.2091 26.3534C39.68 27.4046 37.9597 28.5515 36.2873 29.6983C36.2395 29.5549 36.1439 29.4116 36.0483 29.2205C35.0926 27.3568 33.3246 25.7799 31.2699 24.9676C25.7268 22.5784 18.798 26.4489 18.0813 33.7122C18.0335 34.429 18.0335 35.1458 18.0813 35.8148C18.7503 41.9312 23.7199 45.8973 28.5939 45.3717C29.7885 45.2761 30.6487 44.9416 31.3654 44.6072C32.7034 43.8904 33.229 43.317 33.468 42.9825C33.7069 42.648 33.6113 42.5524 33.5157 42.4091C33.4202 42.3135 33.3246 42.2179 32.9901 42.3613C32.6556 42.5046 32.0344 42.8869 30.8398 43.317C30.2186 43.5081 29.454 43.6992 28.4983 43.747C23.6721 43.9382 19.5148 39.1597 20.0404 33.8556C20.6139 27.8825 26.1091 24.7287 30.6964 26.4967C32.4645 27.1179 33.9458 28.3603 34.8537 29.8894C34.9493 30.0806 35.0449 30.2717 35.1404 30.4151C32.2256 32.3742 31.1743 33.0432 28.1161 35.0024C26.8259 35.8148 26.0613 36.3404 26.1569 36.4837C26.2047 36.5793 27.1126 36.2926 28.4983 35.6714C29.8841 35.0502 31.7477 34.0945 33.7547 32.9955C34.3759 32.661 34.9971 32.2787 35.6661 31.8964C35.7139 32.0398 35.7138 32.1353 35.7616 32.2787C36.4784 35.6236 36.1917 38.7774 34.0892 41.5011C33.6591 42.0746 33.4202 42.3613 33.468 42.4091C33.5157 42.4568 33.8502 42.2657 34.3759 41.7401C36.3828 39.9242 37.7208 36.6271 36.9563 32.0398C36.9085 31.753 36.8607 31.4663 36.8129 31.1796C38.5809 30.1284 40.3968 29.0293 42.0214 27.9781C42.0692 28.1214 42.1648 28.2648 42.2126 28.4559C44.3629 34.2856 43.9806 42.3135 39.4411 47.7609C39.0588 48.2866 38.6765 48.6211 38.4854 48.86C38.2464 49.0989 38.1509 49.2423 38.1987 49.2901C38.1987 49.3378 38.3898 49.1945 38.6287 49.0034C38.9154 48.7644 39.2977 48.4777 39.7278 47.9999C44.2673 43.4603 45.1274 36.8182 44.0284 30.5584C43.7895 29.1727 43.5983 28.4559 43.1683 27.2613C44.8885 26.1622 45.7964 25.541 47.7078 24.2986C47.899 24.6809 48.0423 25.0632 48.1857 25.4932C48.568 26.5923 48.9024 27.6913 49.0936 28.8382C50.9094 37.535 49.9537 46.0407 44.124 52.7306C43.5506 53.4473 43.0249 53.9252 42.7382 54.2597C42.4037 54.5942 42.2604 54.7853 42.2604 54.8331C42.2604 54.8809 42.4993 54.6897 42.8816 54.403C43.2638 54.1163 43.8373 53.6863 44.4585 52.9695C45.7487 51.6793 47.4689 49.5768 48.8069 46.6141C50.8138 42.2657 51.7695 36.197 50.336 28.5515C50.1448 27.4046 49.8581 26.21 49.4281 25.0154C49.2369 24.5375 49.0458 24.0119 48.8069 23.5341C49.7148 22.9606 50.4793 22.435 51.1961 21.9572C52.2474 22.5306 53.5854 23.0084 54.7322 23.3429C55.1145 23.4385 55.5923 23.5818 56.1657 23.5818C56.7392 23.5341 57.217 23.3429 57.6471 23.104C58.8895 22.4828 66.4872 18.1822 67.2996 16.3663C67.5385 15.8407 67.6341 15.3629 67.6819 14.9328C67.6819 14.6939 67.7297 14.5505 67.6819 14.1682C67.6341 13.8338 67.5385 13.547 67.3474 13.3081C67.204 13.117 66.9651 12.9258 66.774 12.8303C66.6306 12.7825 66.5828 12.7347 66.535 12.7347H66.4872C66.3917 12.6869 66.3439 12.6869 66.2961 12.6869C66.0572 12.6391 65.8183 12.5914 65.6271 12.4958C64.9581 12.3524 63.9069 12.0657 63.2379 12.0657C63.2379 12.0179 63.2379 12.0179 63.2379 11.9701C63.2379 11.2056 62.9512 9.96319 62.8078 9.24642C62.7122 8.81635 62.76 9.00749 62.6167 8.38629C62.5689 8.14737 62.5211 7.86066 62.3778 7.62173C62.2822 7.38281 62.1388 7.23946 61.9477 7.0961C61.8043 6.95275 61.5654 6.90496 61.3265 6.85718C61.0876 6.85718 60.8964 6.85718 60.6575 6.95275C60.4186 7.04832 60.1797 7.19167 59.9407 7.38281C56.2135 10.3455 53.2986 12.4002 51.1961 13.8338C51.1483 13.8815 50.4793 14.3116 50.5271 14.2638C50.4793 14.3116 50.4793 14.455 50.4793 14.5027C50.4316 14.6939 50.4316 14.8372 50.3838 15.0284L50.336 15.3629C50.0971 17.561 50.1449 19.4724 50.2882 20.4758C49.6192 20.8581 48.8547 21.336 47.9945 21.9094C47.9468 21.8138 47.899 21.766 47.8512 21.6705C46.561 19.4724 44.8407 17.4654 42.786 15.7451C40.1101 13.547 37.9119 12.6869 37.7208 12.5914C37.1474 12.3046 36.4784 12.0657 35.8572 11.8268C30.8398 9.86762 25.0101 9.81983 20.0404 11.7312C10.4835 15.1717 4.7971 23.5341 3.8414 33.091C2.93349 42.5524 7.23412 51.1537 13.8284 56.3144ZM51.7217 15.6018L51.7695 15.3151L51.8173 15.2195C51.8173 15.1717 51.8651 15.1717 51.8651 15.1717H51.9129H51.9607C52.343 14.9806 52.6774 14.7417 53.0597 14.5505C55.9268 12.8781 58.316 11.2056 60.6097 9.34199L60.8009 9.19863C60.8486 9.15085 60.8486 9.15085 60.8486 9.15085H60.8964H60.9442C61.1354 9.72426 61.3265 10.3455 61.5176 10.9189C61.7566 11.5879 61.9477 12.0179 62.091 12.3524C62.2344 12.5914 62.33 12.7347 62.4733 12.8303C62.5211 12.9736 62.6167 13.0692 62.9034 13.2603C63.429 13.5948 64.4803 14.0249 65.1015 14.216C65.2926 14.2638 65.4838 14.3594 65.7227 14.455C65.7705 14.455 65.8183 14.5027 65.866 14.5027H65.9138C65.9138 14.5983 65.866 15.2673 65.6749 15.6018C65.436 16.1752 58.1727 21.1448 58.0771 21.1926C57.6948 21.4315 57.3604 21.6705 56.9781 21.9094C56.6436 22.1005 56.3569 22.2917 56.0702 22.2917C55.5445 22.3872 54.6844 22.1483 53.9676 22.005C51.8651 21.5749 52.1996 21.6227 51.9129 21.5749C53.1553 20.7148 54.0632 20.1413 54.6366 19.6635C55.9746 18.66 55.879 18.4211 55.7357 18.1822C55.5923 17.9432 55.4012 17.7521 53.9198 18.4689C53.2031 18.8034 52.2474 19.329 50.8616 20.0936C51.0528 19.0901 51.2917 17.4654 51.7217 15.6018Z" fill="black"/>
<path d="M13.8284 56.3144C15.692 57.748 17.6512 58.7992 19.5148 59.5638C24.7711 61.7141 30.8398 61.7619 36.2873 59.3727C39.6322 57.8435 41.018 56.4578 41.7347 55.8366C42.4037 55.1198 42.4037 54.9764 42.3081 54.8809C42.2126 54.7853 42.0692 54.7375 41.2569 55.2154C40.4445 55.6932 38.9632 56.7923 35.7616 58.0825C30.4575 60.0894 24.9145 59.8505 20.1838 57.8913C18.4635 57.1745 16.6955 56.1711 14.9753 54.8331C8.76323 49.9113 4.98824 41.8834 5.75279 33.2822C6.6607 24.3464 11.917 16.6531 20.6616 13.3559C25.249 11.5401 30.5531 11.5401 35.3316 13.2603C37.673 14.1682 39.4411 14.9328 41.8781 16.8442C43.7895 18.4211 45.4619 20.2369 46.7043 22.2917C46.7521 22.3872 46.7999 22.4828 46.8477 22.5784C45.5575 23.3907 44.0284 24.3942 42.4037 25.4932C40.6357 22.2917 37.6252 19.5201 33.9936 18.1822C24.1977 14.1682 12.2515 20.9537 10.9613 33.6166C10.1968 42.3613 15.1664 50.1024 21.9518 52.9217C28.2594 55.5021 34.567 53.6385 37.8642 50.1502C38.342 49.6246 38.2942 49.4812 38.1987 49.3856C38.1031 49.2901 37.9597 49.2423 37.3863 49.5768C35.7139 50.4369 30.2186 54.4986 22.6686 51.297C16.6955 48.7166 12.2515 41.7401 12.9205 33.8556C14.0673 22.2917 24.6756 16.3186 33.3724 19.7591C36.7173 20.9537 39.4888 23.3907 41.1613 26.2578C41.1613 26.3056 41.2091 26.3056 41.2091 26.3534C39.68 27.4046 37.9597 28.5515 36.2873 29.6983C36.2395 29.5549 36.1439 29.4116 36.0483 29.2205C35.0926 27.3568 33.3246 25.7799 31.2699 24.9676C25.7268 22.5784 18.798 26.4489 18.0813 33.7122C18.0335 34.429 18.0335 35.1458 18.0813 35.8148C18.7503 41.9312 23.7199 45.8973 28.5939 45.3717C29.7885 45.2761 30.6487 44.9416 31.3654 44.6072C32.7034 43.8904 33.229 43.317 33.468 42.9825C33.7069 42.648 33.6113 42.5524 33.5157 42.4091C33.4202 42.3135 33.3246 42.2179 32.9901 42.3613C32.6556 42.5046 32.0344 42.8869 30.8398 43.317C30.2186 43.5081 29.454 43.6992 28.4983 43.747C23.6721 43.9382 19.5148 39.1597 20.0404 33.8556C20.6139 27.8825 26.1091 24.7287 30.6964 26.4967C32.4645 27.1179 33.9458 28.3603 34.8537 29.8894C34.9493 30.0806 35.0449 30.2717 35.1404 30.4151C32.2256 32.3742 31.1743 33.0432 28.1161 35.0024C26.8259 35.8148 26.0613 36.3404 26.1569 36.4837C26.2047 36.5793 27.1126 36.2926 28.4983 35.6714C29.8841 35.0502 31.7477 34.0945 33.7547 32.9955C34.3759 32.661 34.9971 32.2787 35.6661 31.8964C35.7139 32.0398 35.7138 32.1353 35.7616 32.2787C36.4784 35.6236 36.1917 38.7774 34.0892 41.5011C33.6591 42.0746 33.4202 42.3613 33.468 42.4091C33.5157 42.4568 33.8502 42.2657 34.3759 41.7401C36.3828 39.9242 37.7208 36.6271 36.9563 32.0398C36.9085 31.753 36.8607 31.4663 36.8129 31.1796C38.5809 30.1284 40.3968 29.0293 42.0214 27.9781C42.0692 28.1214 42.1648 28.2648 42.2126 28.4559C44.3629 34.2856 43.9806 42.3135 39.4411 47.7609C39.0588 48.2866 38.6765 48.6211 38.4854 48.86C38.2464 49.0989 38.1509 49.2423 38.1987 49.2901C38.1987 49.3378 38.3898 49.1945 38.6287 49.0034C38.9154 48.7644 39.2977 48.4777 39.7278 47.9999C44.2673 43.4603 45.1274 36.8182 44.0284 30.5584C43.7895 29.1727 43.5983 28.4559 43.1683 27.2613C44.8885 26.1622 45.7964 25.541 47.7078 24.2986C47.899 24.6809 48.0423 25.0632 48.1857 25.4932C48.568 26.5923 48.9024 27.6913 49.0936 28.8382C50.9094 37.535 49.9537 46.0407 44.124 52.7306C43.5506 53.4473 43.0249 53.9252 42.7382 54.2597C42.4037 54.5942 42.2604 54.7853 42.2604 54.8331C42.2604 54.8809 42.4993 54.6897 42.8816 54.403C43.2638 54.1163 43.8373 53.6863 44.4585 52.9695C45.7487 51.6793 47.4689 49.5768 48.8069 46.6141C50.8138 42.2657 51.7695 36.197 50.336 28.5515C50.1448 27.4046 49.8581 26.21 49.4281 25.0154C49.2369 24.5375 49.0458 24.0119 48.8069 23.5341C49.7148 22.9606 50.4793 22.435 51.1961 21.9572C52.2474 22.5306 53.5854 23.0084 54.7322 23.3429C55.1145 23.4385 55.5923 23.5818 56.1657 23.5818C56.7392 23.5341 57.217 23.3429 57.6471 23.104C58.8895 22.4828 66.4872 18.1822 67.2996 16.3663C67.5385 15.8407 67.6341 15.3629 67.6819 14.9328C67.6819 14.6939 67.7297 14.5505 67.6819 14.1682C67.6341 13.8338 67.5385 13.547 67.3474 13.3081C67.204 13.117 66.9651 12.9258 66.774 12.8303C66.6306 12.7825 66.5828 12.7347 66.535 12.7347H66.4872C66.3917 12.6869 66.3439 12.6869 66.2961 12.6869C66.0572 12.6391 65.8183 12.5914 65.6271 12.4958C64.9581 12.3524 63.9069 12.0657 63.2379 12.0657C63.2379 12.0179 63.2379 12.0179 63.2379 11.9701C63.2379 11.2056 62.9512 9.96319 62.8078 9.24642C62.7122 8.81635 62.76 9.00749 62.6167 8.38629C62.5689 8.14737 62.5211 7.86066 62.3778 7.62173C62.2822 7.38281 62.1388 7.23946 61.9477 7.0961C61.8043 6.95275 61.5654 6.90496 61.3265 6.85718C61.0876 6.85718 60.8964 6.85718 60.6575 6.95275C60.4186 7.04832 60.1797 7.19167 59.9407 7.38281C56.2135 10.3455 53.2986 12.4002 51.1961 13.8338C51.1483 13.8815 50.4793 14.3116 50.5271 14.2638C50.4793 14.3116 50.4793 14.455 50.4793 14.5027C50.4316 14.6939 50.4316 14.8372 50.3838 15.0284L50.336 15.3629C50.0971 17.561 50.1449 19.4724 50.2882 20.4758C49.6192 20.8581 48.8547 21.336 47.9945 21.9094C47.9468 21.8138 47.899 21.766 47.8512 21.6705C46.561 19.4724 44.8407 17.4654 42.786 15.7451C40.1101 13.547 37.9119 12.6869 37.7208 12.5914C37.1474 12.3046 36.4784 12.0657 35.8572 11.8268C30.8398 9.86762 25.0101 9.81983 20.0404 11.7312C10.4835 15.1717 4.7971 23.5341 3.8414 33.091C2.93349 42.5524 7.23412 51.1537 13.8284 56.3144ZM51.7217 15.6018L51.7695 15.3151L51.8173 15.2195C51.8173 15.1717 51.8651 15.1717 51.8651 15.1717H51.9129H51.9607C52.343 14.9806 52.6774 14.7417 53.0597 14.5505C55.9268 12.8781 58.316 11.2056 60.6097 9.34199L60.8009 9.19863C60.8486 9.15085 60.8486 9.15085 60.8486 9.15085H60.8964H60.9442C61.1354 9.72426 61.3265 10.3455 61.5176 10.9189C61.7566 11.5879 61.9477 12.0179 62.091 12.3524C62.2344 12.5914 62.33 12.7347 62.4733 12.8303C62.5211 12.9736 62.6167 13.0692 62.9034 13.2603C63.429 13.5948 64.4803 14.0249 65.1015 14.216C65.2926 14.2638 65.4838 14.3594 65.7227 14.455C65.7705 14.455 65.8183 14.5027 65.866 14.5027H65.9138C65.9138 14.5983 65.866 15.2673 65.6749 15.6018C65.436 16.1752 58.1727 21.1448 58.0771 21.1926C57.6948 21.4315 57.3604 21.6705 56.9781 21.9094C56.6436 22.1005 56.3569 22.2917 56.0702 22.2917C55.5445 22.3872 54.6844 22.1483 53.9676 22.005C51.8651 21.5749 52.1996 21.6227 51.9129 21.5749C53.1553 20.7148 54.0632 20.1413 54.6366 19.6635C55.9746 18.66 55.879 18.4211 55.7357 18.1822C55.5923 17.9432 55.4012 17.7521 53.9198 18.4689C53.2031 18.8034 52.2474 19.329 50.8616 20.0936C51.0528 19.0901 51.2917 17.4654 51.7217 15.6018Z" stroke="black" stroke-width="0.4" mask="url(#path-1-outside-1_1539_1333)"/>
</svg>
