<svg width="33" height="32" viewBox="0 0 33 32" fill="none" xmlns="http://www.w3.org/2000/svg">
<g id="users-profiles-01">
<path id="Icon" d="M21.8664 27.4275L21.8668 23.1425C21.867 20.7756 19.9483 18.8567 17.5814 18.8567H7.98511C5.61853 18.8567 3.69997 20.7751 3.6997 23.1416L3.69922 27.4275M29.2988 27.4278L29.2992 23.1427C29.2994 20.7758 27.3807 18.8569 25.0138 18.8569M21.041 5.4139C22.0934 6.19475 22.7754 7.44656 22.7754 8.85766C22.7754 10.2688 22.0934 11.5206 21.041 12.3014M17.1576 8.85743C17.1576 11.2242 15.239 13.1428 12.8722 13.1428C10.5054 13.1428 8.5868 11.2242 8.5868 8.85743C8.5868 6.49066 10.5054 4.57202 12.8722 4.57202C15.239 4.57202 17.1576 6.49066 17.1576 8.85743Z" stroke="#525252" stroke-width="2" stroke-linecap="round" stroke-linejoin="round"/>
</g>
</svg>
