<svg width="33" height="32" viewBox="0 0 33 32" fill="none" xmlns="http://www.w3.org/2000/svg">
<g id="bank-note-05">
<path id="Icon" d="M23.1667 12.0001V9.33341C23.1667 8.62617 22.8857 7.94789 22.3856 7.4478C21.8855 6.9477 21.2072 6.66675 20.5 6.66675H7.16667C6.45942 6.66675 5.78115 6.9477 5.28105 7.4478C4.78095 7.94789 4.5 8.62617 4.5 9.33341V17.3334C4.5 18.0407 4.78095 18.7189 5.28105 19.219C5.78115 19.7191 6.45942 20.0001 7.16667 20.0001H9.83333M12.5 12.0001H25.8333C27.3061 12.0001 28.5 13.194 28.5 14.6667V22.6667C28.5 24.1395 27.3061 25.3334 25.8333 25.3334H12.5C11.0272 25.3334 9.83333 24.1395 9.83333 22.6667V14.6667C9.83333 13.194 11.0272 12.0001 12.5 12.0001ZM21.8333 18.6667C21.8333 20.1395 20.6394 21.3334 19.1667 21.3334C17.6939 21.3334 16.5 20.1395 16.5 18.6667C16.5 17.194 17.6939 16.0001 19.1667 16.0001C20.6394 16.0001 21.8333 17.194 21.8333 18.6667Z" stroke="#525252" stroke-width="2" stroke-linecap="round" stroke-linejoin="round"/>
</g>
</svg>
